<svg xmlns="http://www.w3.org/2000/svg" viewBox="0 0 38.51 38.51" id="facebook"><defs><linearGradient id="a" x1="0" x2="38.51" y1="19.25" y2="19.25" gradientUnits="userSpaceOnUse"><stop offset="0" stop-color="#1677f1"></stop><stop offset=".18" stop-color="#176ee9"></stop><stop offset=".46" stop-color="#1d55d3"></stop><stop offset=".82" stop-color="#252eb0"></stop><stop offset="1" stop-color="#2b189c"></stop></linearGradient></defs><g style="isolation:isolate"><g><g><g><rect width="38.51" height="38.51" fill="url(#a)" rx="6.97" ry="6.97"></rect><path d="M38.51,31.38v-14.11c-1.25-1.3-11.34-12.43-11.34-12.43-6.89,1.18-6.98,3.93-11.12,10.91h-4.7v5.35l4.7,4.98v7.94h0s2.16,2.29,4.24,4.49h11.1c3.92,0,7.12-3.21,7.12-7.12Z" style="mix-blend-mode:multiply" fill="#2921a4"></path><path fill="#fff" d="M21.82,34.02v-12.92h4.31l.82-5.35h-5.13v-3.47c0-1.46.72-2.89,3.01-2.89h2.33v-4.55s-2.12-.36-4.14-.36c-4.22,0-6.98,2.56-6.98,7.19v4.07h-4.7v5.35h4.7v12.92h5.78Z"></path></g></g></g></g></svg>