<?xml version="1.0" encoding="UTF-8"?>
<!DOCTYPE svg PUBLIC "-//W3C//DTD SVG 1.1//EN" "http://www.w3.org/Graphics/SVG/1.1/DTD/svg11.dtd">
<svg xmlns="http://www.w3.org/2000/svg" version="1.1" width="192px" height="192px" style="shape-rendering:geometricPrecision; text-rendering:geometricPrecision; image-rendering:optimizeQuality; fill-rule:evenodd; clip-rule:evenodd" xmlns:xlink="http://www.w3.org/1999/xlink">
<g><path style="opacity:0.999" fill="#223146" d="M 84.5,-0.5 C 87.1667,-0.5 89.8333,-0.5 92.5,-0.5C 93.3481,2.84508 95.5148,4.51174 99,4.5C 102.851,4.6695 105.351,3.00283 106.5,-0.5C 107.5,-0.5 108.5,-0.5 109.5,-0.5C 112.887,0.287939 116.22,1.28794 119.5,2.5C 117.727,3.31431 117.227,4.64764 118,6.5C 119.796,9.92702 121.963,13.0937 124.5,16C 127.595,16.3129 130.595,15.8129 133.5,14.5C 134.714,12.1413 134.714,9.80801 133.5,7.5C 139.896,9.25482 145.563,12.2548 150.5,16.5C 149.34,17.265 148.34,18.265 147.5,19.5C 148.833,21.8333 150.167,24.1667 151.5,26.5C 155.311,28.2175 157.977,27.2175 159.5,23.5C 163.566,26.5628 166.899,30.2294 169.5,34.5C 179.287,45.4029 185.954,58.0695 189.5,72.5C 186.714,74.1126 184.047,75.946 181.5,78C 182.066,78.9947 182.733,79.828 183.5,80.5C 183.328,81.4916 183.662,82.1583 184.5,82.5C 185.097,83.1386 185.93,83.472 187,83.5C 188.699,83.6134 189.866,82.9468 190.5,81.5C 190.833,81.5 191.167,81.5 191.5,81.5C 191.5,89.8333 191.5,98.1667 191.5,106.5C 190.833,106.167 190.167,105.833 189.5,105.5C 187.983,101.457 185.316,98.4566 181.5,96.5C 178.287,98.3603 175.121,100.36 172,102.5C 171.333,104.5 171.333,106.5 172,108.5C 172.383,109.056 172.883,109.389 173.5,109.5C 176.978,118.863 181.978,119.863 188.5,112.5C 189.167,112.5 189.833,112.5 190.5,112.5C 190.142,115.267 189.475,117.933 188.5,120.5C 183.474,121.996 182.474,124.662 185.5,128.5C 184.784,131.598 183.784,134.598 182.5,137.5C 181.833,137.167 181.167,136.833 180.5,136.5C 179.474,133.628 177.808,131.128 175.5,129C 173.934,128.235 172.601,128.402 171.5,129.5C 164.807,131.637 163.807,135.304 168.5,140.5C 169.334,145.004 172,147.337 176.5,147.5C 175.189,150.135 173.522,152.469 171.5,154.5C 170.299,152.091 168.633,150.091 166.5,148.5C 166.262,146.596 165.262,145.262 163.5,144.5C 163.262,142.596 162.262,141.262 160.5,140.5C 160.573,138.973 159.906,137.973 158.5,137.5C 157.749,136.427 156.749,136.26 155.5,137C 151.759,139.732 147.759,142.066 143.5,144C 142.209,145.292 142.209,146.458 143.5,147.5C 143.833,148.5 144.5,149.167 145.5,149.5C 146.11,151.434 147.11,153.101 148.5,154.5C 148.833,155.5 149.5,156.167 150.5,156.5C 151.433,159.37 153.1,161.704 155.5,163.5C 155.328,164.492 155.662,165.158 156.5,165.5C 156.932,166.71 157.599,167.71 158.5,168.5C 156.777,170.218 154.777,171.551 152.5,172.5C 152.049,170.25 150.715,168.916 148.5,168.5C 143.845,169.823 139.845,172.157 136.5,175.5C 138.246,177.252 140.246,178.585 142.5,179.5C 132.197,185.488 121.197,189.488 109.5,191.5C 101.167,191.5 92.8333,191.5 84.5,191.5C 84.8417,190.662 85.5084,190.328 86.5,190.5C 88.5666,190.468 89.8999,189.468 90.5,187.5C 89.6102,186.045 89.6102,184.711 90.5,183.5C 88.3657,181.582 88.3657,179.582 90.5,177.5C 90.6107,178.117 90.944,178.617 91.5,179C 97.8642,180.387 98.6975,179.221 94,175.5C 93.5172,174.552 93.3505,173.552 93.5,172.5C 95.9608,174.153 98.1275,176.153 100,178.5C 100.399,178.272 100.565,177.938 100.5,177.5C 103.982,175.905 104.315,173.905 101.5,171.5C 101.167,170.833 100.833,170.167 100.5,169.5C 101.598,168.603 101.598,167.77 100.5,167C 102.333,166.5 103.5,165.333 104,163.5C 104.232,164.737 104.732,165.737 105.5,166.5C 106.913,171.356 109.747,175.023 114,177.5C 117.015,176.158 120.015,174.825 123,173.5C 123.6,170.905 123.1,168.571 121.5,166.5C 120.005,162.162 117.838,158.162 115,154.5C 114.667,155.167 114.333,155.833 114,156.5C 113.667,155.167 113.333,153.833 113,152.5C 111.22,153.639 109.386,154.639 107.5,155.5C 105.254,153.966 102.92,152.299 100.5,150.5C 99.6258,148.253 99.2924,145.92 99.5,143.5C 101.527,143.338 103.527,143.505 105.5,144C 106.685,145.353 108.019,146.52 109.5,147.5C 109.817,144.913 108.483,143.08 105.5,142C 101.851,141.037 98.518,141.537 95.5,143.5C 94.4721,143.074 93.1388,143.074 91.5,143.5C 91.6347,145.554 90.968,147.221 89.5,148.5C 87.7508,146.469 85.7508,146.135 83.5,147.5C 82.3127,145.928 81.3127,144.261 80.5,142.5C 86.151,140.554 86.8176,137.554 82.5,133.5C 82.1667,132.833 81.8333,132.167 81.5,131.5C 80.8333,128.833 79.1667,127.167 76.5,126.5C 76.9175,125.778 77.5842,125.278 78.5,125C 76.217,124.709 74.0503,125.209 72,126.5C 71.5,126.167 71,125.833 70.5,125.5C 71.4733,123.36 72.9733,121.693 75,120.5C 75.7431,122.645 76.5765,122.811 77.5,121C 76.9221,119.189 76.4221,117.355 76,115.5C 74.5692,112.734 73.0692,110.734 71.5,109.5C 69.7867,107.15 67.4534,106.15 64.5,106.5C 66.0771,103.983 67.9104,103.983 70,106.5C 71.8029,104.516 72.8029,102.516 73,100.5C 75.254,104.007 77.254,107.673 79,111.5C 79.7589,113.063 80.9256,114.063 82.5,114.5C 86.1621,114.277 89.4954,113.277 92.5,111.5C 93.229,106.232 91.5623,101.565 87.5,97.5C 88.5735,96.7494 88.7401,95.7494 88,94.5C 87.1072,95.7112 86.2739,95.7112 85.5,94.5C 85.24,93.0951 84.9066,91.7618 84.5,90.5C 83.0461,86.2588 81.0461,82.2588 78.5,78.5C 79.3235,76.5454 79.4901,74.5454 79,72.5C 78.6924,73.3081 78.1924,73.9747 77.5,74.5C 76.269,73.3493 76.269,72.1827 77.5,71C 75.4367,67.5099 73.4367,64.6766 71.5,62.5C 70.1805,61.0582 68.5138,60.3915 66.5,60.5C 66.9175,59.7784 67.5842,59.2784 68.5,59C 68,58.8333 67.5,58.6667 67,58.5C 65.2108,59.4091 63.3774,59.5758 61.5,59C 63.0391,56.3168 64.7058,53.8168 66.5,51.5C 65.3932,48.5599 64.0599,45.7266 62.5,43C 62.6448,42.228 62.9781,41.5613 63.5,41C 60.8874,39.9591 58.5541,38.4591 56.5,36.5C 57.5,35.1667 58.5,33.8333 59.5,32.5C 58.1233,28.9412 56.4566,26.2746 54.5,24.5C 53.6618,24.1583 53.3284,23.4916 53.5,22.5C 54.2178,20.8632 54.3845,19.1966 54,17.5C 53.6667,17.8333 53.3333,18.1667 53,18.5C 51.5986,15.9333 50.432,13.2666 49.5,10.5C 50.8333,9.83333 52.1667,9.16667 53.5,8.5C 55.473,15.517 59.8063,17.3503 66.5,14C 67.5742,13.2613 68.2409,12.2613 68.5,11C 67.3487,8.53509 66.3487,6.03509 65.5,3.5C 67.5,3.16667 69.5,2.83333 71.5,2.5C 74.9636,11.6994 80.2969,13.0327 87.5,6.5C 86.7485,4.00373 85.7485,1.6704 84.5,-0.5 Z"/></g>
<g><path style="opacity:1" fill="#5759a9" d="M 92.5,-0.5 C 97.1667,-0.5 101.833,-0.5 106.5,-0.5C 105.351,3.00283 102.851,4.6695 99,4.5C 95.5148,4.51174 93.3481,2.84508 92.5,-0.5 Z"/></g>
<g><path style="opacity:1" fill="#2e4a6a" d="M 81.5,0.5 C 83.1734,3.14166 82.6734,5.14166 80,6.5C 78.1886,5.57645 78.3553,4.74312 80.5,4C 77.7671,0.581949 76.4338,0.748616 76.5,4.5C 75.5748,3.64314 74.9081,2.64314 74.5,1.5C 76.717,0.631365 79.0504,0.298032 81.5,0.5 Z"/></g>
<g><path style="opacity:1" fill="#ececeb" d="M 81.5,-0.5 C 82.5,-0.5 83.5,-0.5 84.5,-0.5C 85.7485,1.6704 86.7485,4.00373 87.5,6.5C 80.2969,13.0327 74.9636,11.6994 71.5,2.5C 72.209,1.59603 73.209,1.26269 74.5,1.5C 74.9081,2.64314 75.5748,3.64314 76.5,4.5C 76.4338,0.748616 77.7671,0.581949 80.5,4C 78.3553,4.74312 78.1886,5.57645 80,6.5C 82.6734,5.14166 83.1734,3.14166 81.5,0.5C 81.5,0.166667 81.5,-0.166667 81.5,-0.5 Z"/></g>
<g><path style="opacity:1" fill="#3a88a1" d="M 119.5,2.5 C 124.644,3.08286 129.31,4.74953 133.5,7.5C 134.714,9.80801 134.714,12.1413 133.5,14.5C 130.595,15.8129 127.595,16.3129 124.5,16C 121.963,13.0937 119.796,9.92702 118,6.5C 117.227,4.64764 117.727,3.31431 119.5,2.5 Z"/></g>
<g><path style="opacity:1" fill="#f09e57" d="M 121.5,5.5 C 127.053,5.02542 127.887,6.69209 124,10.5C 122.906,8.92209 122.072,7.25542 121.5,5.5 Z"/></g>
<g><path style="opacity:1" fill="#374f67" d="M 63.5,4.5 C 67.3512,11.489 65.3512,13.989 57.5,12C 56.4178,10.6703 55.7512,9.17028 55.5,7.5C 58.1716,6.49857 60.8382,5.49857 63.5,4.5 Z"/></g>
<g><path style="opacity:1" fill="#deb584" d="M 128.5,8.5 C 130.625,9.36758 130.791,10.3676 129,11.5C 127.317,10.8235 127.15,9.82352 128.5,8.5 Z"/></g>
<g><path style="opacity:0.996" fill="#212e42" d="M 49.5,10.5 C 50.432,13.2666 51.5986,15.9333 53,18.5C 53.3333,18.1667 53.6667,17.8333 54,17.5C 54.3845,19.1966 54.2178,20.8632 53.5,22.5C 40.4439,18.0618 37.6105,21.7284 45,33.5C 48.8819,35.8701 52.8819,35.8701 57,33.5C 56.7942,30.3939 55.9608,27.3939 54.5,24.5C 56.4566,26.2746 58.1233,28.9412 59.5,32.5C 58.5,33.8333 57.5,35.1667 56.5,36.5C 58.5541,38.4591 60.8874,39.9591 63.5,41C 62.9781,41.5613 62.6448,42.228 62.5,43C 64.0599,45.7266 65.3932,48.5599 66.5,51.5C 64.7058,53.8168 63.0391,56.3168 61.5,59C 63.3774,59.5758 65.2108,59.4091 67,58.5C 67.5,58.6667 68,58.8333 68.5,59C 67.5842,59.2784 66.9175,59.7784 66.5,60.5C 63.3136,60.6129 60.6469,61.7795 58.5,64C 59.9847,67.971 61.9847,71.6377 64.5,75C 67.7253,74.6526 70.892,73.8192 74,72.5C 74.0869,68.985 73.2535,65.6517 71.5,62.5C 73.4367,64.6766 75.4367,67.5099 77.5,71C 76.269,72.1827 76.269,73.3493 77.5,74.5C 78.1924,73.9747 78.6924,73.3081 79,72.5C 79.4901,74.5454 79.3235,76.5454 78.5,78.5C 75.0601,79.0906 71.7268,80.0906 68.5,81.5C 68.5122,86.0686 70.1789,90.2353 73.5,94C 77.7101,94.318 81.3768,93.1514 84.5,90.5C 84.9066,91.7618 85.24,93.0951 85.5,94.5C 86.2739,95.7112 87.1072,95.7112 88,94.5C 88.7401,95.7494 88.5735,96.7494 87.5,97.5C 83.6336,97.9542 80.1336,99.2875 77,101.5C 76.5906,103.695 77.0906,105.695 78.5,107.5C 79.8333,109.833 81.1667,112.167 82.5,114.5C 80.9256,114.063 79.7589,113.063 79,111.5C 77.254,107.673 75.254,104.007 73,100.5C 72.8029,102.516 71.8029,104.516 70,106.5C 67.9104,103.983 66.0771,103.983 64.5,106.5C 58.3891,106.924 56.3891,109.924 58.5,115.5C 59.4432,118.4 61.1099,120.733 63.5,122.5C 65.5979,123.484 67.5979,123.151 69.5,121.5C 72.3523,121.648 74.019,120.314 74.5,117.5C 73.4897,114.817 72.4897,112.151 71.5,109.5C 73.0692,110.734 74.5692,112.734 76,115.5C 76.4221,117.355 76.9221,119.189 77.5,121C 76.5765,122.811 75.7431,122.645 75,120.5C 72.9733,121.693 71.4733,123.36 70.5,125.5C 71,125.833 71.5,126.167 72,126.5C 74.0503,125.209 76.217,124.709 78.5,125C 77.5842,125.278 76.9175,125.778 76.5,126.5C 73.4256,127.356 70.5922,128.69 68,130.5C 67.5906,132.695 68.0906,134.695 69.5,136.5C 71.1044,142.46 74.771,144.46 80.5,142.5C 81.3127,144.261 82.3127,145.928 83.5,147.5C 81.9812,148.41 80.3146,149.243 78.5,150C 77.8933,156.284 80.3933,161.117 86,164.5C 88.8061,163.43 91.4728,162.097 94,160.5C 94.6667,158.833 94.6667,157.167 94,155.5C 92.4894,153.138 90.9894,150.805 89.5,148.5C 90.968,147.221 91.6347,145.554 91.5,143.5C 93.1388,143.074 94.4721,143.074 95.5,143.5C 95.4765,148.62 97.4765,152.787 101.5,156C 103.598,156.678 105.598,156.511 107.5,155.5C 109.386,154.639 111.22,153.639 113,152.5C 113.333,153.833 113.667,155.167 114,156.5C 114.333,155.833 114.667,155.167 115,154.5C 117.838,158.162 120.005,162.162 121.5,166.5C 120.196,165.013 119.03,163.346 118,161.5C 117.196,160.196 116.029,159.529 114.5,159.5C 111.721,160.389 109.055,161.556 106.5,163C 105.663,164.011 105.33,165.178 105.5,166.5C 104.732,165.737 104.232,164.737 104,163.5C 103.5,165.333 102.333,166.5 100.5,167C 101.598,167.77 101.598,168.603 100.5,169.5C 96.9347,166.884 93.6014,167.218 90.5,170.5C 87.9469,172.705 87.9469,175.038 90.5,177.5C 88.3657,179.582 88.3657,181.582 90.5,183.5C 89.6102,184.711 89.6102,186.045 90.5,187.5C 89.8999,189.468 88.5666,190.468 86.5,190.5C 89.2519,187.17 88.9186,184.17 85.5,181.5C 85.5,181.167 85.5,180.833 85.5,180.5C 82.2144,173.353 77.5477,172.52 71.5,178C 69.803,182.013 70.803,185.179 74.5,187.5C 75.8333,188.167 77.1667,188.833 78.5,189.5C 78.5,189.833 78.5,190.167 78.5,190.5C 68.4851,188.814 59.1518,185.481 50.5,180.5C 53.2577,179.623 55.9244,178.456 58.5,177C 58.4527,171.222 56.1194,166.222 51.5,162C 47.8552,162.326 44.3552,163.492 41,165.5C 40.3333,167.167 40.3333,168.833 41,170.5C 42.705,172.577 43.8717,174.91 44.5,177.5C 36.5287,172.674 29.5287,166.674 23.5,159.5C 23.3304,156.796 21.9971,155.129 19.5,154.5C 18.197,152.858 16.8637,151.191 15.5,149.5C 17.4684,148.181 19.4684,148.181 21.5,149.5C 25.1001,153.7 27.9334,158.367 30,163.5C 31.2276,160.358 30.3942,157.525 27.5,155C 27.5547,152.708 27.5547,150.541 27.5,148.5C 29.4701,151.328 31.3034,154.328 33,157.5C 34.1939,158.43 35.5272,159.097 37,159.5C 40.1005,158.357 43.1005,157.024 46,155.5C 46.7185,152.593 46.2185,149.926 44.5,147.5C 46.5138,147.608 48.1805,146.942 49.5,145.5C 50.5,146.833 51.5,148.167 52.5,149.5C 54.4308,153.038 56.7641,153.371 59.5,150.5C 66.1157,149.933 67.7824,146.933 64.5,141.5C 63.6493,139.118 62.316,137.118 60.5,135.5C 60.1667,134.5 59.5,133.833 58.5,133.5C 58.0886,131.228 56.922,130.895 55,132.5C 53.0999,131.923 51.2666,131.256 49.5,130.5C 52.1192,129.881 53.7859,128.214 54.5,125.5C 53.6659,122.498 52.3325,119.832 50.5,117.5C 49.5554,114.013 47.2221,112.68 43.5,113.5C 45.7629,110.168 47.0962,106.668 47.5,103C 46.572,102.612 45.9054,101.945 45.5,101C 46.4239,99.85 46.4239,98.85 45.5,98C 46.1667,97.6667 46.8333,97.3333 47.5,97C 45.4599,94.219 43.7933,91.219 42.5,88C 45.0177,85.2436 48.0177,83.2436 51.5,82C 50.9056,81.5357 50.2389,81.369 49.5,81.5C 52.581,81.211 54.581,79.5444 55.5,76.5C 54.4012,72.4673 52.4012,68.9673 49.5,66C 48.2068,65.51 46.8734,65.3433 45.5,65.5C 46.2625,64.7321 47.2625,64.2321 48.5,64C 46.5,63.6667 44.5,63.3333 42.5,63C 41.1667,62.3333 41.1667,61.6667 42.5,61C 40.6739,60.7083 38.8405,60.875 37,61.5C 34.2209,61.3896 32.8875,60.0563 33,57.5C 34.9435,58.807 36.7768,58.807 38.5,57.5C 39.2625,56.7321 40.2625,56.2321 41.5,56C 39.8659,55.5065 38.1992,55.3398 36.5,55.5C 36.5,54.5 36.5,53.5 36.5,52.5C 37.791,52.7373 38.791,52.404 39.5,51.5C 42.1667,50.8333 42.1667,50.1667 39.5,49.5C 39.1344,48.3054 38.301,47.6387 37,47.5C 35.0999,48.0769 33.2666,48.7435 31.5,49.5C 30.5041,49.4142 29.6708,49.7476 29,50.5C 26.922,48.3194 27.0886,46.3194 29.5,44.5C 28.5,43.6667 27.5,42.8333 26.5,42C 28.0261,40.1129 30.0261,39.1129 32.5,39C 31.2068,38.51 29.8734,38.3433 28.5,38.5C 31.3623,37.8676 34.1956,36.8676 37,35.5C 37.885,32.462 37.385,29.7954 35.5,27.5C 34.8333,25.5 34.1667,23.5 33.5,21.5C 38.4856,17.3395 43.819,13.6728 49.5,10.5 Z"/></g>
<g><path style="opacity:1" fill="#9cbdc2" d="M 65.5,3.5 C 66.3487,6.03509 67.3487,8.53509 68.5,11C 68.2409,12.2613 67.5742,13.2613 66.5,14C 59.8063,17.3503 55.473,15.517 53.5,8.5C 54.1667,8.16667 54.8333,7.83333 55.5,7.5C 55.7512,9.17028 56.4178,10.6703 57.5,12C 65.3512,13.989 67.3512,11.489 63.5,4.5C 64.1667,4.16667 64.8333,3.83333 65.5,3.5 Z"/></g>
<g><path style="opacity:1" fill="#5f6779" d="M 107.5,10.5 C 109.127,13.1139 111.461,15.1139 114.5,16.5C 113.311,17.4287 111.978,17.762 110.5,17.5C 110.97,21.9704 109.97,22.4704 107.5,19C 106.216,18.3162 105.049,18.4829 104,19.5C 103.771,16.5424 102.604,14.0424 100.5,12C 101.803,11.7902 103.136,11.9569 104.5,12.5C 106.038,12.5466 107.038,11.8799 107.5,10.5 Z"/></g>
<g><path style="opacity:1" fill="#c9d0d5" d="M 94.5,21.5 C 92.5496,24.3 89.8829,25.4667 86.5,25C 87.1667,24.6667 87.8333,24.3333 88.5,24C 86.9474,22.9032 85.614,21.5699 84.5,20C 86.5,19.1667 88.5,18.3333 90.5,17.5C 87.5719,16.5159 84.5719,16.1826 81.5,16.5C 87.9485,12.5321 92.2818,14.1987 94.5,21.5 Z"/></g>
<g><path style="opacity:1" fill="#f4f4f3" d="M 81.5,16.5 C 84.5719,16.1826 87.5719,16.5159 90.5,17.5C 88.5,18.3333 86.5,19.1667 84.5,20C 85.614,21.5699 86.9474,22.9032 88.5,24C 87.8333,24.3333 87.1667,24.6667 86.5,25C 89.8829,25.4667 92.5496,24.3 94.5,21.5C 95.7525,23.3388 95.7525,25.1722 94.5,27C 87.2963,30.5359 82.7963,28.3693 81,20.5C 80.235,18.9343 80.4017,17.6009 81.5,16.5 Z"/></g>
<g><path style="opacity:1" fill="#3c6281" d="M 53.5,22.5 C 53.3284,23.4916 53.6618,24.1583 54.5,24.5C 55.9608,27.3939 56.7942,30.3939 57,33.5C 52.8819,35.8701 48.8819,35.8701 45,33.5C 37.6105,21.7284 40.4439,18.0618 53.5,22.5 Z"/></g>
<g><path style="opacity:1" fill="#f5d0ab" d="M 152.5,18.5 C 154.404,18.7376 155.738,19.7376 156.5,21.5C 154.517,25.3851 152.85,25.0517 151.5,20.5C 151.863,19.8165 152.196,19.1499 152.5,18.5 Z"/></g>
<g><path style="opacity:1" fill="#ee864c" d="M 150.5,16.5 C 151.5,16.8333 152.167,17.5 152.5,18.5C 152.196,19.1499 151.863,19.8165 151.5,20.5C 152.85,25.0517 154.517,25.3851 156.5,21.5C 158.027,21.427 159.027,22.0937 159.5,23.5C 157.977,27.2175 155.311,28.2175 151.5,26.5C 150.167,24.1667 148.833,21.8333 147.5,19.5C 148.34,18.265 149.34,17.265 150.5,16.5 Z"/></g>
<g><path style="opacity:1" fill="#c0507f" d="M 33.5,21.5 C 34.1667,23.5 34.8333,25.5 35.5,27.5C 34.5,27.5 33.5,27.5 32.5,27.5C 31.5987,26.7095 30.9321,25.7095 30.5,24.5C 31.1667,23.1667 32.1667,22.1667 33.5,21.5 Z"/></g>
<g><path style="opacity:1" fill="#faf6f5" d="M 28.5,26.5 C 30.0741,30.0088 29.0741,31.0088 25.5,29.5C 26.1667,28.1667 27.1667,27.1667 28.5,26.5 Z"/></g>
<g><path style="opacity:1" fill="#ecedec" d="M 112.5,27.5 C 121.855,26.0212 126.355,30.0212 126,39.5C 122.831,42.0015 119.331,42.6682 115.5,41.5C 112.861,38.3912 110.861,34.8912 109.5,31C 110.544,29.8261 111.544,28.6594 112.5,27.5 Z"/></g>
<g><path style="opacity:1" fill="#efeeed" d="M 66.5,19.5 C 69.3646,19.0548 71.8646,19.7215 74,21.5C 76.5752,24.745 77.4086,28.245 76.5,32C 72.1401,34.2648 68.3068,33.7648 65,30.5C 63.6966,28.0602 62.53,25.5602 61.5,23C 61.6448,22.228 61.9781,21.5613 62.5,21C 64.0581,20.79 65.3915,20.29 66.5,19.5 Z"/></g>
<g><path style="opacity:1" fill="#f8d79f" d="M 73.5,28.5 C 71.8333,29.8333 70.1667,29.8333 68.5,28.5C 68.0941,26.8908 68.0941,25.5575 68.5,24.5C 70.1848,25.9527 71.8514,27.286 73.5,28.5 Z"/></g>
<g><path style="opacity:1" fill="#f3a258" d="M 73.5,28.5 C 71.8514,27.286 70.1848,25.9527 68.5,24.5C 68.0941,25.5575 68.0941,26.8908 68.5,28.5C 66.0762,26.7724 65.9096,24.7724 68,22.5C 70.9753,23.449 72.8086,25.449 73.5,28.5 Z"/></g>
<g><path style="opacity:1" fill="#bf92b5" d="M 28.5,26.5 C 32.3302,29.0677 32.1636,31.0677 28,32.5C 26.6974,32.0217 25.5307,31.355 24.5,30.5C 24.5,29.8333 24.8333,29.5 25.5,29.5C 29.0741,31.0088 30.0741,30.0088 28.5,26.5 Z"/></g>
<g><path style="opacity:1" fill="#f2ebef" d="M 30.5,24.5 C 30.9321,25.7095 31.5987,26.7095 32.5,27.5C 34.1638,29.6791 33.8305,31.5125 31.5,33C 29.1667,33.6667 26.8333,33.6667 24.5,33C 23.944,32.6174 23.6107,32.1174 23.5,31.5C 23.5,30.8333 23.8333,30.5 24.5,30.5C 25.5307,31.355 26.6974,32.0217 28,32.5C 32.1636,31.0677 32.3302,29.0677 28.5,26.5C 28.8333,25.5 29.5,24.8333 30.5,24.5 Z"/></g>
<g><path style="opacity:1" fill="#35b3c2" d="M 134.5,19.5 C 137.785,19.2693 140.285,20.6026 142,23.5C 147.884,30.6291 146.217,34.6291 137,35.5C 135.289,35.5607 133.956,34.8941 133,33.5C 131.258,30.5995 129.758,27.5995 128.5,24.5C 129.419,21.4556 131.419,19.789 134.5,19.5 Z"/></g>
<g><path style="opacity:1" fill="#edf2ee" d="M 134.5,24.5 C 136.179,24.8923 137.846,25.3923 139.5,26C 138.862,27.7067 138.862,29.54 139.5,31.5C 138.5,31.5 137.5,31.5 136.5,31.5C 136.5,30.1667 136.5,28.8333 136.5,27.5C 133.752,27.5983 133.086,26.5983 134.5,24.5 Z"/></g>
<g><path style="opacity:1" fill="#7abec3" d="M 120.5,37.5 C 119.064,36.5714 117.731,35.4048 116.5,34C 115.563,33.3083 114.897,33.475 114.5,34.5C 113.596,33.791 113.263,32.791 113.5,31.5C 117.862,30.8579 121.195,32.3579 123.5,36C 122.473,36.5133 121.473,37.0133 120.5,37.5 Z"/></g>
<g><path style="opacity:1" fill="#743b8f" d="M 32.5,27.5 C 33.5,27.5 34.5,27.5 35.5,27.5C 37.385,29.7954 37.885,32.462 37,35.5C 34.1956,36.8676 31.3623,37.8676 28.5,38.5C 25.1884,38.851 22.855,37.5177 21.5,34.5C 21.427,32.9731 22.0937,31.9731 23.5,31.5C 23.6107,32.1174 23.944,32.6174 24.5,33C 26.8333,33.6667 29.1667,33.6667 31.5,33C 33.8305,31.5125 34.1638,29.6791 32.5,27.5 Z"/></g>
<g><path style="opacity:1" fill="#7bcfc1" d="M 102.5,36.5 C 102.167,37.1667 101.833,37.8333 101.5,38.5C 99.5043,36.6668 97.171,36.1668 94.5,37C 95.8333,37.3333 97.1667,37.6667 98.5,38C 97.552,38.4828 96.552,38.6495 95.5,38.5C 95.4501,40.5901 96.4501,41.9234 98.5,42.5C 100.104,38.7105 101.104,39.0438 101.5,43.5C 101.134,44.6946 100.301,45.3613 99,45.5C 96.5007,44.9169 94.5007,43.5836 93,41.5C 92.6174,42.056 92.1174,42.3893 91.5,42.5C 86.848,35.7538 88.848,32.4205 97.5,32.5C 100.077,32.7474 101.743,34.0807 102.5,36.5 Z"/></g>
<g><path style="opacity:0.994" fill="#1e293b" d="M 21.5,34.5 C 22.855,37.5177 25.1884,38.851 28.5,38.5C 29.8734,38.3433 31.2068,38.51 32.5,39C 30.0261,39.1129 28.0261,40.1129 26.5,42C 27.5,42.8333 28.5,43.6667 29.5,44.5C 27.0886,46.3194 26.922,48.3194 29,50.5C 29.6708,49.7476 30.5041,49.4142 31.5,49.5C 32.0305,51.9237 32.8638,54.257 34,56.5C 35.3561,57.3802 36.8561,57.7135 38.5,57.5C 36.7768,58.807 34.9435,58.807 33,57.5C 32.8875,60.0563 34.2209,61.3896 37,61.5C 38.8405,60.875 40.6739,60.7083 42.5,61C 41.1667,61.6667 41.1667,62.3333 42.5,63C 44.5,63.3333 46.5,63.6667 48.5,64C 47.2625,64.2321 46.2625,64.7321 45.5,65.5C 43.146,65.838 40.8127,66.338 38.5,67C 37.1955,67.804 36.5288,68.9707 36.5,70.5C 37.721,74.61 39.721,78.2767 42.5,81.5C 44.7857,82.4196 47.1191,82.4196 49.5,81.5C 50.2389,81.369 50.9056,81.5357 51.5,82C 48.0177,83.2436 45.0177,85.2436 42.5,88C 43.7933,91.219 45.4599,94.219 47.5,97C 46.8333,97.3333 46.1667,97.6667 45.5,98C 46.4239,98.85 46.4239,99.85 45.5,101C 45.9054,101.945 46.572,102.612 47.5,103C 47.0962,106.668 45.7629,110.168 43.5,113.5C 35.8661,113.76 33.8661,117.094 37.5,123.5C 38.5659,130.903 42.5659,133.237 49.5,130.5C 51.2666,131.256 53.0999,131.923 55,132.5C 56.922,130.895 58.0886,131.228 58.5,133.5C 54.8237,134.337 51.3237,135.67 48,137.5C 47.5721,140.322 48.0721,142.988 49.5,145.5C 48.1805,146.942 46.5138,147.608 44.5,147.5C 40.9613,139.72 35.6279,138.387 28.5,143.5C 27.5481,145.045 27.2148,146.712 27.5,148.5C 27.5547,150.541 27.5547,152.708 27.5,155C 30.3942,157.525 31.2276,160.358 30,163.5C 27.9334,158.367 25.1001,153.7 21.5,149.5C 19.4684,148.181 17.4684,148.181 15.5,149.5C 13.5675,146.634 11.9009,143.634 10.5,140.5C 10.539,137.911 9.53905,135.911 7.5,134.5C 4.0021,126.343 1.33543,118.01 -0.5,109.5C -0.5,104.833 -0.5,100.167 -0.5,95.5C 3.44552,95.5181 7.11219,94.5181 10.5,92.5C 11.9128,88.9808 11.5795,85.6475 9.5,82.5C 8.01033,78.6683 5.34367,76.335 1.5,75.5C 2.28511,68.9972 4.28511,62.9972 7.5,57.5C 9.10896,60.5296 11.109,63.3629 13.5,66C 17.5724,66.3187 21.4057,65.4853 25,63.5C 25.4397,58.3651 24.1063,53.6984 21,49.5C 18.0613,47.1873 14.8946,46.8539 11.5,48.5C 13.8642,43.0909 17.1975,38.4243 21.5,34.5 Z"/></g>
<g><path style="opacity:1" fill="#2a737f" d="M 120.5,37.5 C 118.965,38.7879 117.299,38.7879 115.5,37.5C 114.873,36.5832 114.539,35.5832 114.5,34.5C 114.897,33.475 115.563,33.3083 116.5,34C 117.731,35.4048 119.064,36.5714 120.5,37.5 Z"/></g>
<g><path style="opacity:1" fill="#cbe7e5" d="M 101.5,38.5 C 102.72,40.2837 102.72,41.9504 101.5,43.5C 101.104,39.0438 100.104,38.7105 98.5,42.5C 96.4501,41.9234 95.4501,40.5901 95.5,38.5C 96.552,38.6495 97.552,38.4828 98.5,38C 97.1667,37.6667 95.8333,37.3333 94.5,37C 97.171,36.1668 99.5043,36.6668 101.5,38.5 Z"/></g>
<g><path style="opacity:1" fill="#f6a756" d="M 152.5,45.5 C 151.508,45.3284 150.842,45.6618 150.5,46.5C 150.167,46.5 149.833,46.5 149.5,46.5C 149.38,45.4138 148.713,44.7472 147.5,44.5C 141.795,45.1224 141.295,46.7891 146,49.5C 146.692,50.4368 146.525,51.1034 145.5,51.5C 144.167,51.5 143.5,52.1667 143.5,53.5C 141.681,50.8261 140.014,47.9928 138.5,45C 140.353,41.8136 143.186,39.9802 147,39.5C 150.411,40.0768 152.244,42.0768 152.5,45.5 Z"/></g>
<g><path style="opacity:1" fill="#4d3a3a" d="M 61.5,46.5 C 59.1799,44.7739 56.5133,44.1072 53.5,44.5C 52.6775,50.6749 55.3441,53.6749 61.5,53.5C 61.5594,55.7645 60.7261,56.0978 59,54.5C 57.2382,54.9444 57.4049,55.4444 59.5,56C 55.8198,56.6816 53.3198,55.1816 52,51.5C 47.3602,44.9751 48.8602,41.3084 56.5,40.5C 60.3262,40.6618 61.9928,42.6618 61.5,46.5 Z"/></g>
<g><path style="opacity:1" fill="#2c597e" d="M 169.5,34.5 C 171.254,37.6517 172.087,40.985 172,44.5C 167.846,49.4457 164.012,49.4457 160.5,44.5C 158.229,41.9544 157.063,38.9544 157,35.5C 160.984,32.2892 165.15,31.9559 169.5,34.5 Z"/></g>
<g><path style="opacity:1" fill="#8199ac" d="M 160.5,44.5 C 160.703,42.9557 161.37,41.6223 162.5,40.5C 158.639,39.4024 158.639,38.5691 162.5,38C 161.66,36.3335 162.16,36.1669 164,37.5C 164.406,34.2344 165.906,33.9011 168.5,36.5C 167.726,37.7112 166.893,37.7112 166,36.5C 167.17,39.5305 166.503,42.1972 164,44.5C 163.667,43.8333 163.333,43.1667 163,42.5C 162.292,43.3805 161.458,44.0472 160.5,44.5 Z"/></g>
<g><path style="opacity:1" fill="#96d1cf" d="M 80.5,40.5 C 80.5,41.1667 80.8333,41.5 81.5,41.5C 80.3702,43.3146 79.7036,45.3146 79.5,47.5C 74.4097,47.3032 73.243,44.9698 76,40.5C 76.3333,41.1667 76.6667,41.8333 77,42.5C 77.7096,41.0267 78.8762,40.3601 80.5,40.5 Z"/></g>
<g><path style="opacity:1" fill="#3eb2c1" d="M 102.5,36.5 C 109.059,45.1587 106.725,48.992 95.5,48C 93.5612,46.5679 92.2279,44.7346 91.5,42.5C 92.1174,42.3893 92.6174,42.056 93,41.5C 94.5007,43.5836 96.5007,44.9169 99,45.5C 100.301,45.3613 101.134,44.6946 101.5,43.5C 102.72,41.9504 102.72,40.2837 101.5,38.5C 101.833,37.8333 102.167,37.1667 102.5,36.5 Z"/></g>
<g><path style="opacity:1" fill="#bdc1c2" d="M 39.5,49.5 C 42.1667,50.1667 42.1667,50.8333 39.5,51.5C 39.5,50.8333 39.5,50.1667 39.5,49.5 Z"/></g>
<g><path style="opacity:1" fill="#339dac" d="M 80.5,40.5 C 78.8762,40.3601 77.7096,41.0267 77,42.5C 76.6667,41.8333 76.3333,41.1667 76,40.5C 73.243,44.9698 74.4097,47.3032 79.5,47.5C 79.7036,45.3146 80.3702,43.3146 81.5,41.5C 83.5848,43.6845 84.5848,46.3511 84.5,49.5C 81.5314,50.3287 78.5314,50.4954 75.5,50C 72.3696,46.785 71.0363,43.1183 71.5,39C 74.1262,38.005 76.7929,37.6717 79.5,38C 80.2524,38.6708 80.5858,39.5041 80.5,40.5 Z"/></g>
<g><path style="opacity:1" fill="#262f41" d="M 39.5,49.5 C 39.5,50.1667 39.5,50.8333 39.5,51.5C 37.8561,51.7135 36.3561,51.3802 35,50.5C 33.9568,54.2259 33.4568,53.8926 33.5,49.5C 35.5,49.5 37.5,49.5 39.5,49.5 Z"/></g>
<g><path style="opacity:1" fill="#f6d4bb" d="M 149.5,46.5 C 149.833,46.5 150.167,46.5 150.5,46.5C 153.305,50.265 152.139,52.265 147,52.5C 146.235,52.4301 145.735,52.0967 145.5,51.5C 146.525,51.1034 146.692,50.4368 146,49.5C 141.295,46.7891 141.795,45.1224 147.5,44.5C 148.713,44.7472 149.38,45.4138 149.5,46.5 Z"/></g>
<g><path style="opacity:1" fill="#f69755" d="M 149.5,46.5 C 151.034,48.3421 150.7,49.6754 148.5,50.5C 147.618,49.2402 146.618,48.0736 145.5,47C 146.793,46.51 148.127,46.3433 149.5,46.5 Z"/></g>
<g><path style="opacity:1" fill="#e9a44d" d="M 61.5,46.5 C 64.1426,48.8784 64.1426,51.2118 61.5,53.5C 55.3441,53.6749 52.6775,50.6749 53.5,44.5C 56.5133,44.1072 59.1799,44.7739 61.5,46.5 Z"/></g>
<g><path style="opacity:1" fill="#afb3b8" d="M 39.5,49.5 C 37.5,49.5 35.5,49.5 33.5,49.5C 33.4568,53.8926 33.9568,54.2259 35,50.5C 36.3561,51.3802 37.8561,51.7135 39.5,51.5C 38.791,52.404 37.791,52.7373 36.5,52.5C 36.5,53.5 36.5,54.5 36.5,55.5C 38.1992,55.3398 39.8659,55.5065 41.5,56C 40.2625,56.2321 39.2625,56.7321 38.5,57.5C 36.8561,57.7135 35.3561,57.3802 34,56.5C 32.8638,54.257 32.0305,51.9237 31.5,49.5C 33.2666,48.7435 35.0999,48.0769 37,47.5C 38.301,47.6387 39.1344,48.3054 39.5,49.5 Z"/></g>
<g><path style="opacity:1" fill="#36597a" d="M 119.5,62.5 C 118.938,65.7734 117.271,66.7734 114.5,65.5C 114.421,64.0695 114.754,62.7362 115.5,61.5C 113.604,60.5344 111.604,60.2011 109.5,60.5C 110.112,56.1238 108.946,55.4571 106,58.5C 105.51,59.7932 105.343,61.1266 105.5,62.5C 104.978,64.2191 103.978,65.5525 102.5,66.5C 100.148,63.1484 98.981,59.4817 99,55.5C 109.322,47.4061 116.155,49.7394 119.5,62.5 Z"/></g>
<g><path style="opacity:1" fill="#fa8c58" d="M 152.5,45.5 C 157.613,51.9828 155.947,55.6494 147.5,56.5C 145.583,56.2462 144.249,55.2462 143.5,53.5C 143.5,52.1667 144.167,51.5 145.5,51.5C 145.735,52.0967 146.235,52.4301 147,52.5C 152.139,52.265 153.305,50.265 150.5,46.5C 150.842,45.6618 151.508,45.3284 152.5,45.5 Z"/></g>
<g><path style="opacity:1" fill="#83cfcb" d="M 134.5,52.5 C 134.019,55.8335 132.353,58.1669 129.5,59.5C 125.686,59.3491 124.019,57.3491 124.5,53.5C 125.5,53.5 126.5,53.5 127.5,53.5C 128.436,45.8644 130.77,45.5311 134.5,52.5 Z"/></g>
<g><path style="opacity:1" fill="#2c4a66" d="M 90.5,61.5 C 90.5,62.8333 90.5,64.1667 90.5,65.5C 89.5,65.5 88.5,65.5 87.5,65.5C 87.5,64.1667 87.5,62.8333 87.5,61.5C 84.001,61.741 83.6677,60.9076 86.5,59C 84.4434,56.9193 82.7767,57.086 81.5,59.5C 80.5222,59.189 79.8555,58.5223 79.5,57.5C 82.1634,56.8076 84.6634,55.8076 87,54.5C 89.3806,56.0937 90.5472,58.427 90.5,61.5 Z"/></g>
<g><path style="opacity:1" fill="#216c85" d="M 134.5,52.5 C 136.074,55.4304 135.408,57.9304 132.5,60C 131.251,60.7401 130.251,60.5735 129.5,59.5C 132.353,58.1669 134.019,55.8335 134.5,52.5 Z"/></g>
<g><path style="opacity:1" fill="#f8b05d" d="M 182.5,59.5 C 182.196,61.7957 181.196,62.129 179.5,60.5C 179.446,58.368 178.446,57.0347 176.5,56.5C 175.611,54.1414 174.278,53.9747 172.5,56C 171.594,57.6995 171.261,59.5328 171.5,61.5C 170.833,61.5 170.167,61.5 169.5,61.5C 167.488,59.4329 167.154,57.0996 168.5,54.5C 170.585,53.229 172.752,52.229 175,51.5C 178.611,53.0034 181.111,55.6701 182.5,59.5 Z"/></g>
<g><path style="opacity:1" fill="#1e3b58" d="M 7.5,57.5 C 8.04207,54.0878 9.3754,51.0878 11.5,48.5C 14.8946,46.8539 18.0613,47.1873 21,49.5C 24.1063,53.6984 25.4397,58.3651 25,63.5C 21.4057,65.4853 17.5724,66.3187 13.5,66C 11.109,63.3629 9.10896,60.5296 7.5,57.5 Z"/></g>
<g><path style="opacity:1" fill="#88c0c1" d="M 13.5,52.5 C 16.3029,53.0665 18.6363,54.3998 20.5,56.5C 18.4994,61.0918 15.4994,61.7585 11.5,58.5C 12.3721,56.5504 13.0388,54.5504 13.5,52.5 Z"/></g>
<g><path style="opacity:1" fill="#ee9e58" d="M 109.5,60.5 C 109.5,60.8333 109.5,61.1667 109.5,61.5C 108.295,63.1376 106.962,63.4709 105.5,62.5C 105.343,61.1266 105.51,59.7932 106,58.5C 108.946,55.4571 110.112,56.1238 109.5,60.5 Z"/></g>
<g><path style="opacity:1" fill="#f8e4d9" d="M 176.5,56.5 C 174.365,56.147 173.032,56.9803 172.5,59C 173.43,61.4354 175.097,62.9354 177.5,63.5C 175.142,63.7475 173.142,63.0808 171.5,61.5C 171.261,59.5328 171.594,57.6995 172.5,56C 174.278,53.9747 175.611,54.1414 176.5,56.5 Z"/></g>
<g><path style="opacity:1" fill="#8ba6b1" d="M 87.5,65.5 C 83.5,65.5 81.5,63.5 81.5,59.5C 82.7767,57.086 84.4434,56.9193 86.5,59C 83.6677,60.9076 84.001,61.741 87.5,61.5C 87.5,62.8333 87.5,64.1667 87.5,65.5 Z"/></g>
<g><path style="opacity:1" fill="#fbb38c" d="M 176.5,56.5 C 178.446,57.0347 179.446,58.368 179.5,60.5C 175.551,60.6932 175.551,61.1932 179.5,62C 178.956,62.7172 178.289,63.2172 177.5,63.5C 175.097,62.9354 173.43,61.4354 172.5,59C 173.032,56.9803 174.365,56.147 176.5,56.5 Z"/></g>
<g><path style="opacity:1" fill="#345d7f" d="M 66.5,60.5 C 68.5138,60.3915 70.1805,61.0582 71.5,62.5C 73.2535,65.6517 74.0869,68.985 74,72.5C 70.892,73.8192 67.7253,74.6526 64.5,75C 61.9847,71.6377 59.9847,67.971 58.5,64C 60.6469,61.7795 63.3136,60.6129 66.5,60.5 Z"/></g>
<g><path style="opacity:1" fill="#c1e0df" d="M 109.5,61.5 C 109.5,61.1667 109.5,60.8333 109.5,60.5C 111.604,60.2011 113.604,60.5344 115.5,61.5C 114.754,62.7362 114.421,64.0695 114.5,65.5C 114.217,66.2891 113.717,66.9558 113,67.5C 112.059,65.2726 110.892,63.2726 109.5,61.5 Z"/></g>
<g><path style="opacity:1" fill="#e6e2e2" d="M 162.5,65.5 C 162.5,67.8333 162.5,70.1667 162.5,72.5C 155.161,74.0224 152.161,71.3557 153.5,64.5C 156.468,62.6259 159.468,62.9592 162.5,65.5 Z"/></g>
<g><path style="opacity:1" fill="#2a4568" d="M 109.5,61.5 C 110.892,63.2726 112.059,65.2726 113,67.5C 113.717,66.9558 114.217,66.2891 114.5,65.5C 117.271,66.7734 118.938,65.7734 119.5,62.5C 121.326,64.4551 121.826,66.7884 121,69.5C 117.143,71.346 113.143,73.0126 109,74.5C 105.654,72.8171 103.487,70.1505 102.5,66.5C 103.978,65.5525 104.978,64.2191 105.5,62.5C 106.962,63.4709 108.295,63.1376 109.5,61.5 Z"/></g>
<g><path style="opacity:1" fill="#f4855b" d="M 182.5,59.5 C 183.598,60.6009 183.765,61.9343 183,63.5C 177.336,69.451 172.836,68.7843 169.5,61.5C 170.167,61.5 170.833,61.5 171.5,61.5C 173.142,63.0808 175.142,63.7475 177.5,63.5C 178.289,63.2172 178.956,62.7172 179.5,62C 175.551,61.1932 175.551,60.6932 179.5,60.5C 181.196,62.129 182.196,61.7957 182.5,59.5 Z"/></g>
<g><path style="opacity:1" fill="#aab3b9" d="M 90.5,61.5 C 92.2726,62.3143 92.7726,63.6476 92,65.5C 90.3845,66.8009 88.8845,66.8009 87.5,65.5C 88.5,65.5 89.5,65.5 90.5,65.5C 90.5,64.1667 90.5,62.8333 90.5,61.5 Z"/></g>
<g><path style="opacity:1" fill="#dadfe3" d="M 64.5,64.5 C 68.8333,64.1667 70.8333,66.1667 70.5,70.5C 65.2621,71.2667 63.2621,69.2667 64.5,64.5 Z"/></g>
<g><path style="opacity:1" fill="#efefed" d="M 45.5,65.5 C 46.8734,65.3433 48.2068,65.51 49.5,66C 52.4012,68.9673 54.4012,72.4673 55.5,76.5C 54.581,79.5444 52.581,81.211 49.5,81.5C 47.1191,82.4196 44.7857,82.4196 42.5,81.5C 39.721,78.2767 37.721,74.61 36.5,70.5C 36.5288,68.9707 37.1955,67.804 38.5,67C 40.8127,66.338 43.146,65.838 45.5,65.5 Z"/></g>
<g><path style="opacity:1" fill="#284264" d="M 143.5,74.5 C 143.095,73.4502 142.429,73.4502 141.5,74.5C 140.719,73.2713 140.219,71.938 140,70.5C 138.955,72.7418 138.455,74.7418 138.5,76.5C 133.665,74.9713 132.999,75.4713 136.5,78C 134.993,78.8373 134.493,80.0039 135,81.5C 136.039,80.2899 137.206,79.2899 138.5,78.5C 138.5,79.5 138.5,80.5 138.5,81.5C 138.028,83.599 138.028,85.599 138.5,87.5C 133.845,83.523 131.345,78.523 131,72.5C 133.694,70.319 136.694,68.6524 140,67.5C 142.428,68.2598 144.261,69.7598 145.5,72C 144.934,72.9947 144.267,73.828 143.5,74.5 Z"/></g>
<g><path style="opacity:1" fill="#5e6781" d="M 156.5,64.5 C 159.804,65.1441 161.138,67.1441 160.5,70.5C 155.003,70.8105 153.669,68.8105 156.5,64.5 Z"/></g>
<g><path style="opacity:1" fill="#324669" d="M 42.5,75.5 C 42.5,74.8333 42.8333,74.5 43.5,74.5C 44.8786,76.5969 46.5453,76.9302 48.5,75.5C 46.9224,71.5242 44.589,70.8575 41.5,73.5C 41.572,71.6891 42.4053,70.3557 44,69.5C 47.1668,69.7497 49.3335,71.2497 50.5,74C 48.8086,79.3942 46.1419,79.8942 42.5,75.5 Z"/></g>
<g><path style="opacity:1" fill="#9ec1ad" d="M 99.5,76.5 C 97.1043,74.7879 94.4376,74.2879 91.5,75C 89.771,76.7889 89.1043,78.9556 89.5,81.5C 86.9327,79.0388 86.9327,76.5388 89.5,74C 93.9913,71.2551 97.3246,72.0884 99.5,76.5 Z"/></g>
<g><path style="opacity:1" fill="#337f96" d="M 153.5,64.5 C 152.161,71.3557 155.161,74.0224 162.5,72.5C 162.5,70.1667 162.5,67.8333 162.5,65.5C 164.856,67.9373 165.022,70.604 163,73.5C 153.771,76.1034 150.271,72.7701 152.5,63.5C 153.107,63.6236 153.44,63.9569 153.5,64.5 Z"/></g>
<g><path style="opacity:1" fill="#f0f1f4" d="M 156.5,66.5 C 159.674,66.9522 160.007,67.9522 157.5,69.5C 156.614,68.675 156.281,67.675 156.5,66.5 Z"/></g>
<g><path style="opacity:1" fill="#efefec" d="M 21.5,70.5 C 24.6852,70.0196 27.5185,70.6863 30,72.5C 33.1701,76.6167 34.3368,81.1167 33.5,86C 30.3957,87.0678 27.229,87.9011 24,88.5C 21.849,88.3569 20.1824,87.3569 19,85.5C 17.3635,82.3939 15.8635,79.2272 14.5,76C 16.1172,73.1986 18.4506,71.3653 21.5,70.5 Z"/></g>
<g><path style="opacity:1" fill="#dddddb" d="M 48.5,75.5 C 46.5453,76.9302 44.8786,76.5969 43.5,74.5C 43.4346,74.0618 43.6012,73.7284 44,73.5C 45.1096,75.0368 46.6096,75.7035 48.5,75.5 Z"/></g>
<g><path style="opacity:1" fill="#6f7d8f" d="M 48.5,75.5 C 46.6096,75.7035 45.1096,75.0368 44,73.5C 43.6012,73.7284 43.4346,74.0618 43.5,74.5C 42.8333,74.5 42.5,74.8333 42.5,75.5C 41.6618,75.1583 41.3284,74.4916 41.5,73.5C 44.589,70.8575 46.9224,71.5242 48.5,75.5 Z"/></g>
<g><path style="opacity:1" fill="#576e84" d="M 143.5,74.5 C 143.389,75.1174 143.056,75.6174 142.5,76C 147.655,78.3193 147.322,78.8193 141.5,77.5C 140.85,79.1836 139.85,80.5169 138.5,81.5C 138.5,80.5 138.5,79.5 138.5,78.5C 138.5,77.8333 138.5,77.1667 138.5,76.5C 138.455,74.7418 138.955,72.7418 140,70.5C 140.219,71.938 140.719,73.2713 141.5,74.5C 142.429,73.4502 143.095,73.4502 143.5,74.5 Z"/></g>
<g><path style="opacity:1" fill="#f4f3f3" d="M 189.5,72.5 C 189.5,73.5 189.5,74.5 189.5,75.5C 188.456,77.4916 186.456,79.1583 183.5,80.5C 182.733,79.828 182.066,78.9947 181.5,78C 184.047,75.946 186.714,74.1126 189.5,72.5 Z"/></g>
<g><path style="opacity:1" fill="#9fa2aa" d="M 189.5,75.5 C 190.167,75.5 190.5,75.8333 190.5,76.5C 188.984,78.9362 186.984,80.9362 184.5,82.5C 183.662,82.1583 183.328,81.4916 183.5,80.5C 186.456,79.1583 188.456,77.4916 189.5,75.5 Z"/></g>
<g><path style="opacity:1" fill="#dc656c" d="M 99.5,76.5 C 101.074,78.1016 101.741,80.1016 101.5,82.5C 100.089,83.9076 98.4225,84.9076 96.5,85.5C 94.9623,85.5466 93.9623,84.8799 93.5,83.5C 91.9382,83.2671 90.6049,82.6005 89.5,81.5C 89.1043,78.9556 89.771,76.7889 91.5,75C 94.4376,74.2879 97.1043,74.7879 99.5,76.5 Z"/></g>
<g><path style="opacity:1" fill="#3f7a8a" d="M 96.5,77.5 C 95.1667,77.5 93.8333,77.5 92.5,77.5C 92.5,78.8333 92.5,80.1667 92.5,81.5C 91.5489,80.0813 91.2155,78.4147 91.5,76.5C 93.4147,76.2155 95.0813,76.5489 96.5,77.5 Z"/></g>
<g><path style="opacity:1" fill="#a5b5c1" d="M 138.5,76.5 C 138.5,77.1667 138.5,77.8333 138.5,78.5C 137.206,79.2899 136.039,80.2899 135,81.5C 134.493,80.0039 134.993,78.8373 136.5,78C 132.999,75.4713 133.665,74.9713 138.5,76.5 Z"/></g>
<g><path style="opacity:1" fill="#364668" d="M 1.5,75.5 C 5.34367,76.335 8.01033,78.6683 9.5,82.5C 8.66175,82.8417 8.32842,83.5084 8.5,84.5C 6.34784,82.2218 3.68117,80.8884 0.5,80.5C 0.215521,78.5853 0.548855,76.9187 1.5,75.5 Z"/></g>
<g><path style="opacity:1" fill="#4d9da8" d="M 96.5,77.5 C 98.3769,78.6591 98.8769,80.3258 98,82.5C 96.6439,83.3802 95.1439,83.7135 93.5,83.5C 93.1667,82.8333 92.8333,82.1667 92.5,81.5C 92.5,80.1667 92.5,78.8333 92.5,77.5C 93.8333,77.5 95.1667,77.5 96.5,77.5 Z"/></g>
<g><path style="opacity:1" fill="#25395c" d="M 93.5,78.5 C 94.9953,78.4148 95.9953,79.0815 96.5,80.5C 94.6043,81.6394 93.6043,80.9728 93.5,78.5 Z"/></g>
<g><path style="opacity:1" fill="#ebebeb" d="M 190.5,76.5 C 190.5,78.1667 190.5,79.8333 190.5,81.5C 189.866,82.9468 188.699,83.6134 187,83.5C 185.93,83.472 185.097,83.1386 184.5,82.5C 186.984,80.9362 188.984,78.9362 190.5,76.5 Z"/></g>
<g><path style="opacity:1" fill="#69b9b5" d="M 26.5,76.5 C 27.4959,76.4142 28.3292,76.7476 29,77.5C 29.4966,79.8098 29.6633,82.1432 29.5,84.5C 24.7854,85.4761 21.4521,83.8095 19.5,79.5C 20.7654,75.6629 23.0987,74.6629 26.5,76.5 Z"/></g>
<g><path style="opacity:1" fill="#233848" d="M 26.5,76.5 C 28.0808,78.1417 28.7475,80.1417 28.5,82.5C 23.8775,83.5918 22.0442,81.9252 23,77.5C 24.0113,76.6634 25.1779,76.33 26.5,76.5 Z"/></g>
<g><path style="opacity:1" fill="#e6955c" d="M 126.5,87.5 C 126.321,90.7705 124.488,92.4371 121,92.5C 119.317,90.6495 117.484,88.9828 115.5,87.5C 115.428,82.2225 117.761,80.5559 122.5,82.5C 117.309,84.9895 117.309,87.6562 122.5,90.5C 123.642,89.1738 124.976,88.1738 126.5,87.5 Z"/></g>
<g><path style="opacity:1" fill="#398196" d="M 129.5,86.5 C 128.209,86.2627 127.209,86.596 126.5,87.5C 124.976,88.1738 123.642,89.1738 122.5,90.5C 117.309,87.6562 117.309,84.9895 122.5,82.5C 117.761,80.5559 115.428,82.2225 115.5,87.5C 116.494,89.3344 116.494,91.0011 115.5,92.5C 107.747,81.5395 110.747,76.5395 124.5,77.5C 126.952,80.071 128.619,83.071 129.5,86.5 Z"/></g>
<g><path style="opacity:1" fill="#3f628e" d="M 171.5,80.5 C 167.474,83.2052 163.808,86.2052 160.5,89.5C 157.679,86.7395 158.013,84.2395 161.5,82C 163.453,80.3674 165.62,79.2007 168,78.5C 169.699,78.3866 170.866,79.0532 171.5,80.5 Z"/></g>
<g><path style="opacity:1" fill="#3e8c94" d="M 89.5,81.5 C 90.6049,82.6005 91.9382,83.2671 93.5,83.5C 93.9623,84.8799 94.9623,85.5466 96.5,85.5C 98.4225,84.9076 100.089,83.9076 101.5,82.5C 99.8063,87.0132 96.8063,88.1799 92.5,86C 90.8588,84.871 89.8588,83.371 89.5,81.5 Z"/></g>
<g><path style="opacity:1" fill="#f0f1f1" d="M 171.5,80.5 C 173.319,81.9362 173.652,83.6029 172.5,85.5C 169.243,88.4621 165.576,90.2955 161.5,91C 160.944,90.6174 160.611,90.1174 160.5,89.5C 163.808,86.2052 167.474,83.2052 171.5,80.5 Z"/></g>
<g><path style="opacity:1" fill="#ee814e" d="M 0.5,80.5 C 3.68117,80.8884 6.34784,82.2218 8.5,84.5C 8.76036,91.2548 5.76036,93.9215 -0.5,92.5C -0.5,88.8333 -0.5,85.1667 -0.5,81.5C 0.166667,81.5 0.5,81.1667 0.5,80.5 Z"/></g>
<g><path style="opacity:1" fill="#282938" d="M 0.5,85.5 C 1.56764,84.5655 2.90097,84.2322 4.5,84.5C 4.66018,86.1992 4.49351,87.8659 4,89.5C 3.05127,87.9069 1.88461,86.5736 0.5,85.5 Z"/></g>
<g><path style="opacity:1" fill="#f2f1f0" d="M 78.5,78.5 C 81.0461,82.2588 83.0461,86.2588 84.5,90.5C 81.3768,93.1514 77.7101,94.318 73.5,94C 70.1789,90.2353 68.5122,86.0686 68.5,81.5C 71.7268,80.0906 75.0601,79.0906 78.5,78.5 Z"/></g>
<g><path style="opacity:1" fill="#29a295" d="M 80.5,87.5 C 80.5499,89.5901 79.5499,90.9234 77.5,91.5C 75.4788,90.1455 73.8121,88.4788 72.5,86.5C 73.2216,86.0825 73.7216,85.4158 74,84.5C 75.9935,85.914 78.1602,86.914 80.5,87.5 Z"/></g>
<g><path style="opacity:1" fill="#f3c66f" d="M 80.5,87.5 C 78.1602,86.914 75.9935,85.914 74,84.5C 73.7216,85.4158 73.2216,86.0825 72.5,86.5C 72.147,84.3652 72.9803,83.0319 75,82.5C 78.1182,82.944 79.9515,84.6107 80.5,87.5 Z"/></g>
<g><path style="opacity:1" fill="#375376" d="M 101.5,90.5 C 103.144,90.2865 104.644,90.6198 106,91.5C 108.03,94.2263 109.53,97.2263 110.5,100.5C 110.392,101.442 110.059,102.275 109.5,103C 106.46,105.031 103.293,105.531 100,104.5C 98.5053,102.89 98.3387,101.224 99.5,99.5C 95.7269,98.5506 94.7269,96.3839 96.5,93C 98.4913,92.6264 100.158,91.793 101.5,90.5 Z"/></g>
<g><path style="opacity:1" fill="#5e61bc" d="M 174.5,86.5 C 176.908,87.3148 177.741,88.9814 177,91.5C 173.969,95.2392 170.136,97.0726 165.5,97C 164.549,96.2825 164.383,95.4491 165,94.5C 168.358,91.9688 171.524,89.3021 174.5,86.5 Z"/></g>
<g><path style="opacity:1" fill="#2c6989" d="M 129.5,86.5 C 130.979,89.1431 130.646,91.6431 128.5,94C 124.983,95.7342 121.316,96.4008 117.5,96C 116.695,94.8873 116.028,93.7206 115.5,92.5C 116.494,91.0011 116.494,89.3344 115.5,87.5C 117.484,88.9828 119.317,90.6495 121,92.5C 124.488,92.4371 126.321,90.7705 126.5,87.5C 127.209,86.596 128.209,86.2627 129.5,86.5 Z"/></g>
<g><path style="opacity:1" fill="#2d869d" d="M 9.5,82.5 C 11.5795,85.6475 11.9128,88.9808 10.5,92.5C 7.11219,94.5181 3.44552,95.5181 -0.5,95.5C -0.5,94.5 -0.5,93.5 -0.5,92.5C 5.76036,93.9215 8.76036,91.2548 8.5,84.5C 8.32842,83.5084 8.66175,82.8417 9.5,82.5 Z"/></g>
<g><path style="opacity:1" fill="#efeeee" d="M 102.5,94.5 C 105.654,95.4739 106.654,97.4739 105.5,100.5C 104.167,99.1667 102.833,99.1667 101.5,100.5C 100.229,98.1937 100.562,96.1937 102.5,94.5 Z"/></g>
<g><path style="opacity:1" fill="#1f3652" d="M 52.5,85.5 C 55.4822,85.1044 58.1489,85.7711 60.5,87.5C 61.5014,90.1732 63.0014,92.5065 65,94.5C 65.8959,97.025 65.3959,99.1917 63.5,101C 58.1935,103.676 53.6935,102.843 50,98.5C 48.4515,95.8621 47.2848,93.0288 46.5,90C 47.9726,87.767 49.9726,86.267 52.5,85.5 Z"/></g>
<g><path style="opacity:1" fill="#babcc2" d="M 54.5,89.5 C 57.3607,91.0075 59.694,93.1742 61.5,96C 56.075,100.227 52.7417,99.0608 51.5,92.5C 52.9935,91.8589 53.9935,90.8589 54.5,89.5 Z"/></g>
<g><path style="opacity:1" fill="#394766" d="M 53.5,93.5 C 55.6086,94.0524 56.4419,95.3858 56,97.5C 54.2942,96.6921 53.4609,95.3588 53.5,93.5 Z"/></g>
<g><path style="opacity:1" fill="#478ca2" d="M 87.5,97.5 C 91.5623,101.565 93.229,106.232 92.5,111.5C 90.9318,109.189 90.0984,106.522 90,103.5C 89.6667,105.833 89.3333,108.167 89,110.5C 87.9324,104.095 86.4324,104.095 84.5,110.5C 82.4664,109.441 80.4664,108.441 78.5,107.5C 77.0906,105.695 76.5906,103.695 77,101.5C 80.1336,99.2875 83.6336,97.9542 87.5,97.5 Z"/></g>
<g><path style="opacity:1" fill="#b8e0c7" d="M 189.5,105.5 C 189.672,106.492 189.338,107.158 188.5,107.5C 188.5,106.833 188.167,106.5 187.5,106.5C 186.079,103.918 183.912,102.251 181,101.5C 179.358,101.978 178.191,102.978 177.5,104.5C 176.168,106.138 174.834,107.804 173.5,109.5C 172.883,109.389 172.383,109.056 172,108.5C 171.333,106.5 171.333,104.5 172,102.5C 175.121,100.36 178.287,98.3603 181.5,96.5C 185.316,98.4566 187.983,101.457 189.5,105.5 Z"/></g>
<g><path style="opacity:1" fill="#f0efec" d="M 31.5,92.5 C 34.6852,92.0196 37.5185,92.6863 40,94.5C 41.7771,97.7199 43.2771,101.053 44.5,104.5C 44.4712,106.029 43.8045,107.196 42.5,108C 39.4711,108.732 36.4711,109.565 33.5,110.5C 31.8927,110.363 30.5594,109.696 29.5,108.5C 27.5565,104.947 25.8898,101.281 24.5,97.5C 24.6082,96.5581 24.9415,95.7247 25.5,95C 27.6115,94.1553 29.6115,93.322 31.5,92.5 Z"/></g>
<g><path style="opacity:1" fill="#949297" d="M 37.5,98.5 C 37.44,99.0431 37.1067,99.3764 36.5,99.5C 35.5,98.8333 34.5,98.1667 33.5,97.5C 32.8589,98.9935 31.8589,99.9935 30.5,100.5C 30.5,99.1667 30.5,97.8333 30.5,96.5C 32.5273,96.3379 34.5273,96.5045 36.5,97C 37.056,97.3826 37.3893,97.8826 37.5,98.5 Z"/></g>
<g><path style="opacity:1" fill="#323b4e" d="M 37.5,98.5 C 38.1312,100.448 39.1312,102.281 40.5,104C 35.6896,106.676 32.3563,105.509 30.5,100.5C 31.8589,99.9935 32.8589,98.9935 33.5,97.5C 34.5,98.1667 35.5,98.8333 36.5,99.5C 37.1067,99.3764 37.44,99.0431 37.5,98.5 Z"/></g>
<g><path style="opacity:1" fill="#1e5d67" d="M 136.5,107.5 C 135.5,107.5 134.5,107.5 133.5,107.5C 133.025,105.278 132.025,104.611 130.5,105.5C 128.228,104.681 125.894,104.015 123.5,103.5C 130.138,97.1565 134.471,98.4899 136.5,107.5 Z"/></g>
<g><path style="opacity:1" fill="#2c626f" d="M 187.5,106.5 C 187.565,106.938 187.399,107.272 187,107.5C 185.833,106.333 184.667,105.167 183.5,104C 181.934,103.235 180.601,103.402 179.5,104.5C 178.833,104.5 178.167,104.5 177.5,104.5C 178.191,102.978 179.358,101.978 181,101.5C 183.912,102.251 186.079,103.918 187.5,106.5 Z"/></g>
<g><path style="opacity:1" fill="#e8eded" d="M 148.5,93.5 C 153.593,94.0921 156.593,96.9254 157.5,102C 151.679,112.251 146.346,111.917 141.5,101C 143.348,97.9871 145.682,95.4871 148.5,93.5 Z"/></g>
<g><path style="opacity:1" fill="#78c7c5" d="M 148.5,95.5 C 152.976,95.8222 154.476,98.1556 153,102.5C 149.975,106.266 147.142,106.266 144.5,102.5C 146.713,99.9199 148.88,99.9199 151,102.5C 150.805,100.255 149.638,98.4216 147.5,97C 148.056,96.6174 148.389,96.1174 148.5,95.5 Z"/></g>
<g><path style="opacity:1" fill="#ed925c" d="M 19.5,107.5 C 18.2141,110.117 16.5475,112.45 14.5,114.5C 14.4431,113.391 14.1098,112.391 13.5,111.5C 13.7976,108.735 14.7976,106.235 16.5,104C 18.4784,104.033 19.4784,105.2 19.5,107.5 Z"/></g>
<g><path style="opacity:1" fill="#92b4b6" d="M 133.5,107.5 C 132.548,108.452 131.548,109.452 130.5,110.5C 125.304,109.232 125.304,108.565 130.5,108.5C 130.5,107.5 130.5,106.5 130.5,105.5C 132.025,104.611 133.025,105.278 133.5,107.5 Z"/></g>
<g><path style="opacity:1" fill="#186d8a" d="M 12.5,110.5 C 9.5602,109.798 6.72687,108.798 4,107.5C 3.60123,107.728 3.43456,108.062 3.5,108.5C 0.788023,105.193 1.78802,104.027 6.5,105C 9.64659,105.649 11.6466,107.482 12.5,110.5 Z"/></g>
<g><path style="opacity:0.051" fill="#ec6a8e" d="M 189.5,105.5 C 190.167,105.833 190.833,106.167 191.5,106.5C 191.5,107.5 191.5,108.5 191.5,109.5C 190.596,110.209 190.263,111.209 190.5,112.5C 189.833,112.5 189.167,112.5 188.5,112.5C 188.5,110.833 188.5,109.167 188.5,107.5C 189.338,107.158 189.672,106.492 189.5,105.5 Z"/></g>
<g><path style="opacity:1" fill="#7ec5c6" d="M 64.5,106.5 C 67.4534,106.15 69.7867,107.15 71.5,109.5C 72.4897,112.151 73.4897,114.817 74.5,117.5C 74.019,120.314 72.3523,121.648 69.5,121.5C 72.5807,117.822 71.914,115.155 67.5,113.5C 63.3548,109.074 60.3548,109.741 58.5,115.5C 56.3891,109.924 58.3891,106.924 64.5,106.5 Z"/></g>
<g><path style="opacity:1" fill="#68c1b8" d="M 12.5,110.5 C 12.5,111.167 12.8333,111.5 13.5,111.5C 14.1098,112.391 14.4431,113.391 14.5,114.5C 11.1667,113.5 7.83333,112.5 4.5,111.5C 3.89022,110.609 3.55688,109.609 3.5,108.5C 3.43456,108.062 3.60123,107.728 4,107.5C 6.72687,108.798 9.5602,109.798 12.5,110.5 Z"/></g>
<g><path style="opacity:1" fill="#7692a3" d="M 116.5,113.5 C 116.5,113.833 116.5,114.167 116.5,114.5C 115.292,113.766 113.959,113.433 112.5,113.5C 109.715,112.916 108.048,113.916 107.5,116.5C 107.167,116.5 106.833,116.5 106.5,116.5C 105.833,117.167 105.167,117.833 104.5,118.5C 102.983,116.064 103.316,113.898 105.5,112C 108.351,110.392 111.351,109.726 114.5,110C 115.305,111.113 115.972,112.279 116.5,113.5 Z"/></g>
<g><path style="opacity:1" fill="#328798" d="M 67.5,113.5 C 67.8895,117.353 66.5562,120.353 63.5,122.5C 61.1099,120.733 59.4432,118.4 58.5,115.5C 60.3548,109.741 63.3548,109.074 67.5,113.5 Z"/></g>
<g><path style="opacity:1" fill="#2a9689" d="M 123.5,103.5 C 125.894,104.015 128.228,104.681 130.5,105.5C 130.5,106.5 130.5,107.5 130.5,108.5C 125.304,108.565 125.304,109.232 130.5,110.5C 131.548,109.452 132.548,108.452 133.5,107.5C 134.5,107.5 135.5,107.5 136.5,107.5C 138.441,109.011 138.941,111.011 138,113.5C 134.945,116.271 131.445,117.438 127.5,117C 124.368,113.252 122.535,109.085 122,104.5C 122.383,103.944 122.883,103.611 123.5,103.5 Z"/></g>
<g><path style="opacity:1" fill="#326c91" d="M 92.5,111.5 C 89.4954,113.277 86.1621,114.277 82.5,114.5C 81.1667,112.167 79.8333,109.833 78.5,107.5C 80.4664,108.441 82.4664,109.441 84.5,110.5C 86.4324,104.095 87.9324,104.095 89,110.5C 89.3333,108.167 89.6667,105.833 90,103.5C 90.0984,106.522 90.9318,109.189 92.5,111.5 Z"/></g>
<g><path style="opacity:1" fill="#e9e7e6" d="M 19.5,107.5 C 21.2385,109.119 21.7385,111.119 21,113.5C 17.1306,115.903 12.9639,117.07 8.5,117C 6.56121,115.568 5.22788,113.735 4.5,111.5C 7.83333,112.5 11.1667,113.5 14.5,114.5C 16.5475,112.45 18.2141,110.117 19.5,107.5 Z"/></g>
<g><path style="opacity:1" fill="#47bbbb" d="M 187.5,106.5 C 188.167,106.5 188.5,106.833 188.5,107.5C 188.5,109.167 188.5,110.833 188.5,112.5C 181.978,119.863 176.978,118.863 173.5,109.5C 174.834,107.804 176.168,106.138 177.5,104.5C 178.167,104.5 178.833,104.5 179.5,104.5C 180.601,103.402 181.934,103.235 183.5,104C 184.667,105.167 185.833,106.333 187,107.5C 187.399,107.272 187.565,106.938 187.5,106.5 Z"/></g>
<g><path style="opacity:1" fill="#225463" d="M 178.5,108.5 C 179.655,110.825 181.655,111.992 184.5,112C 180.694,113.939 178.028,112.773 176.5,108.5C 176.97,107.537 177.637,107.537 178.5,108.5 Z"/></g>
<g><path style="opacity:1" fill="#276a75" d="M 179.5,104.5 C 184.346,104.953 185.346,106.953 182.5,110.5C 181.378,109.37 180.044,108.703 178.5,108.5C 178.433,107.041 178.766,105.708 179.5,104.5 Z"/></g>
<g><path style="opacity:1" fill="#50bcaa" d="M 43.5,113.5 C 47.2221,112.68 49.5554,114.013 50.5,117.5C 50.1583,118.338 49.4916,118.672 48.5,118.5C 45.1481,116.671 42.4814,117.338 40.5,120.5C 40.8627,121.183 41.1961,121.85 41.5,122.5C 40.0413,122.433 38.7079,122.766 37.5,123.5C 33.8661,117.094 35.8661,113.76 43.5,113.5 Z"/></g>
<g><path style="opacity:1" fill="#454a5d" d="M 112.5,113.5 C 113.172,114.267 114.005,114.934 115,115.5C 115.497,117.81 115.663,120.143 115.5,122.5C 110.976,122.796 108.31,120.796 107.5,116.5C 108.048,113.916 109.715,112.916 112.5,113.5 Z"/></g>
<g><path style="opacity:1" fill="#a4ce6c" d="M 164.5,111.5 C 165.906,111.973 166.573,112.973 166.5,114.5C 165.5,116.167 164.167,117.5 162.5,118.5C 163.167,116.167 163.833,113.833 164.5,111.5 Z"/></g>
<g><path style="opacity:1" fill="#56cbc4" d="M 164.5,111.5 C 163.833,113.833 163.167,116.167 162.5,118.5C 162.443,119.609 162.11,120.609 161.5,121.5C 159.95,122.441 158.284,123.107 156.5,123.5C 153.687,121.53 152.52,118.863 153,115.5C 156.003,112.417 159.503,110.584 163.5,110C 164.056,110.383 164.389,110.883 164.5,111.5 Z"/></g>
<g><path style="opacity:1" fill="#1f5179" d="M 67.5,113.5 C 71.914,115.155 72.5807,117.822 69.5,121.5C 67.5979,123.151 65.5979,123.484 63.5,122.5C 66.5562,120.353 67.8895,117.353 67.5,113.5 Z"/></g>
<g><path style="opacity:1" fill="#95726b" d="M 112.5,113.5 C 113.959,113.433 115.292,113.766 116.5,114.5C 117.847,117.432 117.514,120.098 115.5,122.5C 115.663,120.143 115.497,117.81 115,115.5C 114.005,114.934 113.172,114.267 112.5,113.5 Z"/></g>
<g><path style="opacity:1" fill="#97bdbb" d="M 48.5,118.5 C 48.3364,124.167 48.0031,124.5 47.5,119.5C 46.5,119.5 45.5,119.5 44.5,119.5C 44.7989,121.604 44.4656,123.604 43.5,125.5C 42.5748,124.643 41.9081,123.643 41.5,122.5C 41.1961,121.85 40.8627,121.183 40.5,120.5C 42.4814,117.338 45.1481,116.671 48.5,118.5 Z"/></g>
<g><path style="opacity:1" fill="#f39454" d="M 91.5,120.5 C 93.4547,119.07 95.1214,119.403 96.5,121.5C 96.5,122.833 96.5,124.167 96.5,125.5C 96.1667,125.5 95.8333,125.5 95.5,125.5C 95.1667,124.833 94.8333,124.167 94.5,123.5C 93.8333,122.167 92.8333,121.167 91.5,120.5 Z"/></g>
<g><path style="opacity:1" fill="#f1c85b" d="M 91.5,120.5 C 92.8333,121.167 93.8333,122.167 94.5,123.5C 91.6421,123.028 89.6421,124.028 88.5,126.5C 86.8094,123.336 87.8094,121.336 91.5,120.5 Z"/></g>
<g><path style="opacity:1" fill="#f6ba58" d="M 161.5,121.5 C 162.417,123.662 162.417,125.995 161.5,128.5C 158.833,127.833 157.167,126.167 156.5,123.5C 158.284,123.107 159.95,122.441 161.5,121.5 Z"/></g>
<g><path style="opacity:1" fill="#f3d080" d="M 166.5,114.5 C 169.575,116.317 170.741,118.984 170,122.5C 167.721,125.381 164.888,127.381 161.5,128.5C 162.417,125.995 162.417,123.662 161.5,121.5C 162.11,120.609 162.443,119.609 162.5,118.5C 164.167,117.5 165.5,116.167 166.5,114.5 Z"/></g>
<g><path style="opacity:1" fill="#e95f81" d="M 96.5,121.5 C 98.1042,122.287 98.7709,123.62 98.5,125.5C 97.6043,126.506 96.9377,126.506 96.5,125.5C 96.5,124.167 96.5,122.833 96.5,121.5 Z"/></g>
<g><path style="opacity:1" fill="#3a5774" d="M 116.5,113.5 C 118.075,115.645 119.409,117.978 120.5,120.5C 117.623,123.938 113.957,125.772 109.5,126C 107.376,123.769 105.709,121.269 104.5,118.5C 105.167,117.833 105.833,117.167 106.5,116.5C 107.216,122.162 110.216,124.162 115.5,122.5C 117.514,120.098 117.847,117.432 116.5,114.5C 116.5,114.167 116.5,113.833 116.5,113.5 Z"/></g>
<g><path style="opacity:1" fill="#a37b6c" d="M 106.5,116.5 C 106.833,116.5 107.167,116.5 107.5,116.5C 108.31,120.796 110.976,122.796 115.5,122.5C 110.216,124.162 107.216,122.162 106.5,116.5 Z"/></g>
<g><path style="opacity:1" fill="#ebac81" d="M 111.5,116.5 C 113.973,116.947 114.14,117.947 112,119.5C 110.272,118.648 110.105,117.648 111.5,116.5 Z"/></g>
<g><path style="opacity:1" fill="#e14e8c" d="M 141.5,120.5 C 144.712,120.712 146.712,122.379 147.5,125.5C 145.611,126.604 143.945,127.937 142.5,129.5C 142.167,129.5 141.833,129.5 141.5,129.5C 140.412,126.444 140.412,123.444 141.5,120.5 Z"/></g>
<g><path style="opacity:1" fill="#5e59bc" d="M 141.5,120.5 C 140.412,123.444 140.412,126.444 141.5,129.5C 138.763,129.599 136.096,129.265 133.5,128.5C 132.427,127.749 132.26,126.749 133,125.5C 135.478,123.18 138.311,121.514 141.5,120.5 Z"/></g>
<g><path style="opacity:1" fill="#51c4a7" d="M 94.5,123.5 C 94.8333,124.167 95.1667,124.833 95.5,125.5C 95.5,127.5 94.5,128.5 92.5,128.5C 90.6203,128.771 89.287,128.104 88.5,126.5C 89.6421,124.028 91.6421,123.028 94.5,123.5 Z"/></g>
<g><path style="opacity:0.675" fill="#309392" d="M 188.5,120.5 C 188.097,123.486 187.097,126.152 185.5,128.5C 182.474,124.662 183.474,121.996 188.5,120.5 Z"/></g>
<g><path style="opacity:1" fill="#2a7d80" d="M 50.5,117.5 C 52.3325,119.832 53.6659,122.498 54.5,125.5C 53.7859,128.214 52.1192,129.881 49.5,130.5C 42.5659,133.237 38.5659,130.903 37.5,123.5C 38.7079,122.766 40.0413,122.433 41.5,122.5C 41.9081,123.643 42.5748,124.643 43.5,125.5C 44.4656,123.604 44.7989,121.604 44.5,119.5C 45.5,119.5 46.5,119.5 47.5,119.5C 48.0031,124.5 48.3364,124.167 48.5,118.5C 49.4916,118.672 50.1583,118.338 50.5,117.5 Z"/></g>
<g><path style="opacity:1" fill="#3a93bb" d="M 95.5,125.5 C 95.8333,125.5 96.1667,125.5 96.5,125.5C 96.9377,126.506 97.6043,126.506 98.5,125.5C 98.67,126.822 98.3366,127.989 97.5,129C 95.6131,129.78 93.9464,129.613 92.5,128.5C 94.5,128.5 95.5,127.5 95.5,125.5 Z"/></g>
<g><path style="opacity:1" fill="#f08556" d="M 147.5,125.5 C 150.669,127.574 151.669,130.241 150.5,133.5C 150.5,132.5 150.5,131.5 150.5,130.5C 147.833,130.167 145.167,129.833 142.5,129.5C 143.945,127.937 145.611,126.604 147.5,125.5 Z"/></g>
<g><path style="opacity:1" fill="#eae6df" d="M 81.5,131.5 C 81.8333,132.167 82.1667,132.833 82.5,133.5C 82.6579,140.388 79.9913,142.055 74.5,138.5C 72.9731,138.573 71.9731,137.906 71.5,136.5C 71.378,127.984 74.7113,126.317 81.5,131.5 Z"/></g>
<g><path style="opacity:1" fill="#2aa4af" d="M 180.5,136.5 C 178.729,139.223 176.395,139.889 173.5,138.5C 171.732,135.838 171.065,132.838 171.5,129.5C 172.601,128.402 173.934,128.235 175.5,129C 177.808,131.128 179.474,133.628 180.5,136.5 Z"/></g>
<g><path style="opacity:1" fill="#59b9b1" d="M 76.5,126.5 C 79.1667,127.167 80.8333,128.833 81.5,131.5C 74.7113,126.317 71.378,127.984 71.5,136.5C 70.8333,136.5 70.1667,136.5 69.5,136.5C 68.0906,134.695 67.5906,132.695 68,130.5C 70.5922,128.69 73.4256,127.356 76.5,126.5 Z"/></g>
<g><path style="opacity:1" fill="#11688d" d="M 133.5,128.5 C 136.096,129.265 138.763,129.599 141.5,129.5C 141.5,130.167 141.5,130.833 141.5,131.5C 139.167,131.833 137.833,133.167 137.5,135.5C 135.917,133.337 134.584,131.004 133.5,128.5 Z"/></g>
<g><path style="opacity:1" fill="#efb250" d="M 142.5,129.5 C 145.167,129.833 147.833,130.167 150.5,130.5C 150.5,131.5 150.5,132.5 150.5,133.5C 149.205,134.488 147.872,135.488 146.5,136.5C 145.167,134.167 143.833,131.833 142.5,129.5 Z"/></g>
<g><path style="opacity:1" fill="#2da7bd" d="M 119.5,129.5 C 122.652,128.959 125.152,129.959 127,132.5C 134.325,140.555 132.658,145.555 122,147.5C 120.289,147.561 118.956,146.894 118,145.5C 116.027,142.536 114.527,139.369 113.5,136C 113.667,135.167 113.833,134.333 114,133.5C 116.167,132.512 118,131.179 119.5,129.5 Z"/></g>
<g><path style="opacity:1" fill="#d3d66a" d="M 141.5,129.5 C 141.833,129.5 142.167,129.5 142.5,129.5C 143.833,131.833 145.167,134.167 146.5,136.5C 145.609,137.11 144.609,137.443 143.5,137.5C 141.72,136.01 141.054,134.01 141.5,131.5C 141.5,130.833 141.5,130.167 141.5,129.5 Z"/></g>
<g><path style="opacity:1" fill="#64dad9" d="M 171.5,129.5 C 171.065,132.838 171.732,135.838 173.5,138.5C 171.95,139.441 170.284,140.107 168.5,140.5C 163.807,135.304 164.807,131.637 171.5,129.5 Z"/></g>
<g><path style="opacity:1" fill="#213350" d="M 27.5,122.5 C 30.6981,125.895 32.5315,129.895 33,134.5C 32.6258,135.416 32.1258,136.25 31.5,137C 28.2302,138.321 24.8969,138.987 21.5,139C 17.553,135.203 14.553,130.703 12.5,125.5C 15.5199,122.072 19.3533,120.072 24,119.5C 25.6424,119.978 26.8091,120.978 27.5,122.5 Z"/></g>
<g><path style="opacity:1" fill="#23657d" d="M 27.5,130.5 C 29.9272,131.279 29.9272,132.446 27.5,134C 24.8333,134.667 22.1667,134.667 19.5,134C 20.2524,133.329 20.5858,132.496 20.5,131.5C 22.1667,131.5 23.8333,131.5 25.5,131.5C 26.1667,131.167 26.8333,130.833 27.5,130.5 Z"/></g>
<g><path style="opacity:1" fill="#69b6b1" d="M 19.5,125.5 C 22.5223,126.522 24.5223,128.522 25.5,131.5C 23.8333,131.5 22.1667,131.5 20.5,131.5C 17.8807,130.355 15.8807,128.521 14.5,126C 16.1341,125.506 17.8008,125.34 19.5,125.5 Z"/></g>
<g><path style="opacity:1" fill="#ea9b5e" d="M 27.5,122.5 C 27.5,125.167 27.5,127.833 27.5,130.5C 26.8333,130.833 26.1667,131.167 25.5,131.5C 24.5223,128.522 22.5223,126.522 19.5,125.5C 21.936,124.129 24.6027,123.129 27.5,122.5 Z"/></g>
<g><path style="opacity:1" fill="#f7935a" d="M 74.5,138.5 C 71.6152,135.385 71.9485,132.719 75.5,130.5C 80.1505,131.266 81.6505,133.932 80,138.5C 78.2933,139.138 76.46,139.138 74.5,138.5 Z"/></g>
<g><path style="opacity:1" fill="#199fa2" d="M 141.5,131.5 C 141.054,134.01 141.72,136.01 143.5,137.5C 140.92,139.016 138.92,138.349 137.5,135.5C 137.833,133.167 139.167,131.833 141.5,131.5 Z"/></g>
<g><path style="opacity:0.561" fill="#cececf" d="M 7.5,134.5 C 9.53905,135.911 10.539,137.911 10.5,140.5C 8.99249,138.819 7.99249,136.819 7.5,134.5 Z"/></g>
<g><path style="opacity:1" fill="#5ed0d0" d="M 158.5,137.5 C 152.942,140.104 147.942,143.437 143.5,147.5C 142.209,146.458 142.209,145.292 143.5,144C 147.759,142.066 151.759,139.732 155.5,137C 156.749,136.26 157.749,136.427 158.5,137.5 Z"/></g>
<g><path style="opacity:1" fill="#edf0ef" d="M 123.5,133.5 C 124.756,133.461 125.756,133.961 126.5,135C 125.773,137.124 125.106,139.291 124.5,141.5C 121.554,144.429 120.387,144.095 121,140.5C 116.195,138.53 116.361,137.197 121.5,136.5C 122.193,135.482 122.859,134.482 123.5,133.5 Z"/></g>
<g><path style="opacity:1" fill="#3b8b9d" d="M 82.5,133.5 C 86.8176,137.554 86.151,140.554 80.5,142.5C 74.771,144.46 71.1044,142.46 69.5,136.5C 70.1667,136.5 70.8333,136.5 71.5,136.5C 71.9731,137.906 72.9731,138.573 74.5,138.5C 79.9913,142.055 82.6579,140.388 82.5,133.5 Z"/></g>
<g><path style="opacity:1" fill="#e96064" d="M 58.5,133.5 C 59.5,133.833 60.1667,134.5 60.5,135.5C 58.8958,136.287 58.2291,137.62 58.5,139.5C 55.6,139.408 53.9333,140.741 53.5,143.5C 52.375,144.348 52.375,145.348 53.5,146.5C 52.596,147.209 52.2627,148.209 52.5,149.5C 51.5,148.167 50.5,146.833 49.5,145.5C 48.0721,142.988 47.5721,140.322 48,137.5C 51.3237,135.67 54.8237,134.337 58.5,133.5 Z"/></g>
<g><path style="opacity:1" fill="#eb5a7c" d="M 180.5,136.5 C 181.167,136.833 181.833,137.167 182.5,137.5C 180.863,141.118 178.863,144.451 176.5,147.5C 172,147.337 169.334,145.004 168.5,140.5C 170.284,140.107 171.95,139.441 173.5,138.5C 176.395,139.889 178.729,139.223 180.5,136.5 Z"/></g>
<g><path style="opacity:1" fill="#f5945c" d="M 60.5,135.5 C 62.316,137.118 63.6493,139.118 64.5,141.5C 63.7611,141.369 63.0944,141.536 62.5,142C 61.9152,143.302 61.2485,144.469 60.5,145.5C 58.7245,145.206 56.7245,145.04 54.5,145C 53.944,144.617 53.6107,144.117 53.5,143.5C 53.9333,140.741 55.6,139.408 58.5,139.5C 58.2291,137.62 58.8958,136.287 60.5,135.5 Z"/></g>
<g><path style="opacity:1" fill="#bfc3c8" d="M 107.5,155.5 C 105.598,156.511 103.598,156.678 101.5,156C 97.4765,152.787 95.4765,148.62 95.5,143.5C 98.518,141.537 101.851,141.037 105.5,142C 108.483,143.08 109.817,144.913 109.5,147.5C 108.019,146.52 106.685,145.353 105.5,144C 103.527,143.505 101.527,143.338 99.5,143.5C 99.2924,145.92 99.6258,148.253 100.5,150.5C 102.92,152.299 105.254,153.966 107.5,155.5 Z"/></g>
<g><path style="opacity:1" fill="#f7ecdf" d="M 53.5,143.5 C 53.6107,144.117 53.944,144.617 54.5,145C 56.7245,145.04 58.7245,145.206 60.5,145.5C 60.0679,146.71 59.4013,147.71 58.5,148.5C 56.4862,148.608 54.8195,147.942 53.5,146.5C 52.375,145.348 52.375,144.348 53.5,143.5 Z"/></g>
<g><path style="opacity:1" fill="#1f89a0" d="M 101.5,145.5 C 105.908,145.062 107.575,147.062 106.5,151.5C 102.686,151.349 101.019,149.349 101.5,145.5 Z"/></g>
<g><path style="opacity:1" fill="#2a999a" d="M 160.5,140.5 C 162.262,141.262 163.262,142.596 163.5,144.5C 159.572,149.425 154.572,152.758 148.5,154.5C 147.11,153.101 146.11,151.434 145.5,149.5C 148.642,146.531 151.975,143.698 155.5,141C 157.134,140.506 158.801,140.34 160.5,140.5 Z"/></g>
<g><path style="opacity:1" fill="#eef3f2" d="M 158.5,137.5 C 159.906,137.973 160.573,138.973 160.5,140.5C 158.801,140.34 157.134,140.506 155.5,141C 151.975,143.698 148.642,146.531 145.5,149.5C 144.5,149.167 143.833,148.5 143.5,147.5C 147.942,143.437 152.942,140.104 158.5,137.5 Z"/></g>
<g><path style="opacity:1" fill="#f3b358" d="M 64.5,141.5 C 67.7824,146.933 66.1157,149.933 59.5,150.5C 58.6618,150.158 58.3284,149.492 58.5,148.5C 59.4013,147.71 60.0679,146.71 60.5,145.5C 61.2485,144.469 61.9152,143.302 62.5,142C 63.0944,141.536 63.7611,141.369 64.5,141.5 Z"/></g>
<g><path style="opacity:1" fill="#f6915a" d="M 53.5,146.5 C 54.8195,147.942 56.4862,148.608 58.5,148.5C 58.3284,149.492 58.6618,150.158 59.5,150.5C 56.7641,153.371 54.4308,153.038 52.5,149.5C 52.2627,148.209 52.596,147.209 53.5,146.5 Z"/></g>
<g><path style="opacity:1" fill="#49b898" d="M 89.5,148.5 C 90.9894,150.805 92.4894,153.138 94,155.5C 94.6667,157.167 94.6667,158.833 94,160.5C 91.4728,162.097 88.8061,163.43 86,164.5C 80.3933,161.117 77.8933,156.284 78.5,150C 80.3146,149.243 81.9812,148.41 83.5,147.5C 85.7508,146.135 87.7508,146.469 89.5,148.5 Z"/></g>
<g><path style="opacity:1" fill="#233f65" d="M 44.5,147.5 C 46.2185,149.926 46.7185,152.593 46,155.5C 43.1005,157.024 40.1005,158.357 37,159.5C 35.5272,159.097 34.1939,158.43 33,157.5C 31.3034,154.328 29.4701,151.328 27.5,148.5C 27.2148,146.712 27.5481,145.045 28.5,143.5C 35.6279,138.387 40.9613,139.72 44.5,147.5 Z"/></g>
<g><path style="opacity:1" fill="#bdc2c5" d="M 35.5,147.5 C 34.2334,148.087 33.2334,148.087 32.5,147.5C 36.0309,143.324 38.6976,143.657 40.5,148.5C 39.9904,150.088 38.9904,151.255 37.5,152C 38.731,153.183 38.731,154.349 37.5,155.5C 35.9462,153.067 35.2796,150.4 35.5,147.5 Z"/></g>
<g><path style="opacity:1" fill="#35496b" d="M 35.5,147.5 C 37.0927,146.133 38.4261,146.466 39.5,148.5C 39.1667,148.833 38.8333,149.167 38.5,149.5C 37.7348,148.388 36.7348,147.721 35.5,147.5 Z"/></g>
<g><path style="opacity:1" fill="#f4f2ef" d="M 163.5,144.5 C 165.262,145.262 166.262,146.596 166.5,148.5C 161.412,151.571 156.078,154.238 150.5,156.5C 149.5,156.167 148.833,155.5 148.5,154.5C 154.572,152.758 159.572,149.425 163.5,144.5 Z"/></g>
<g><path style="opacity:1" fill="#f4a259" d="M 166.5,148.5 C 168.633,150.091 170.299,152.091 171.5,154.5C 171.167,155.5 170.5,156.167 169.5,156.5C 165.908,160.963 161.241,163.296 155.5,163.5C 153.1,161.704 151.433,159.37 150.5,156.5C 156.078,154.238 161.412,151.571 166.5,148.5 Z"/></g>
<g><path style="opacity:1" fill="#2b3f61" d="M 142.5,163.5 C 142.5,164.167 142.167,164.5 141.5,164.5C 140.207,164.125 138.874,163.792 137.5,163.5C 138.895,160.026 137.729,157.692 134,156.5C 132.338,156.388 131.171,157.054 130.5,158.5C 131.331,161.672 133.331,163.338 136.5,163.5C 134.158,164.008 131.991,165.008 130,166.5C 120.986,156.542 123.152,151.375 136.5,151C 140.524,154.213 142.524,158.38 142.5,163.5 Z"/></g>
<g><path style="opacity:1" fill="#4fc3b6" d="M 66.5,154.5 C 68.8273,154.247 70.8273,154.914 72.5,156.5C 74.5774,159.49 76.2441,162.656 77.5,166C 77.5607,167.711 76.8941,169.044 75.5,170C 73.0402,170.981 70.5402,171.815 68,172.5C 66.2894,172.561 64.956,171.894 64,170.5C 62.027,167.536 60.527,164.369 59.5,161C 59.4393,159.289 60.1059,157.956 61.5,157C 63.3146,156.243 64.9812,155.41 66.5,154.5 Z"/></g>
<g><path style="opacity:0.125" fill="#87b2b3" d="M 19.5,154.5 C 21.9971,155.129 23.3304,156.796 23.5,159.5C 21.9373,158.055 20.604,156.389 19.5,154.5 Z"/></g>
<g><path style="opacity:1" fill="#c9cbcd" d="M 84.5,152.5 C 84.56,151.957 84.8933,151.624 85.5,151.5C 90.7945,152.8 91.7945,155.634 88.5,160C 87.2068,160.49 85.8734,160.657 84.5,160.5C 84.3178,158.325 83.6511,156.325 82.5,154.5C 82.5427,153.584 82.8761,152.917 83.5,152.5C 83.9488,154.533 84.9488,156.2 86.5,157.5C 89.0742,154.983 88.4075,153.316 84.5,152.5 Z"/></g>
<g><path style="opacity:1" fill="#253242" d="M 83.5,152.5 C 83.8333,152.5 84.1667,152.5 84.5,152.5C 88.4075,153.316 89.0742,154.983 86.5,157.5C 84.9488,156.2 83.9488,154.533 83.5,152.5 Z"/></g>
<g><path style="opacity:1" fill="#d1d2d6" d="M 137.5,163.5 C 137.167,163.5 136.833,163.5 136.5,163.5C 133.331,163.338 131.331,161.672 130.5,158.5C 131.171,157.054 132.338,156.388 134,156.5C 137.729,157.692 138.895,160.026 137.5,163.5 Z"/></g>
<g><path style="opacity:1" fill="#dee2e2" d="M 67.5,158.5 C 72.8782,160.35 73.7115,163.35 70,167.5C 66.7546,166.682 64.588,164.682 63.5,161.5C 64.9014,160.479 66.2347,159.479 67.5,158.5 Z"/></g>
<g><path style="opacity:1" fill="#304364" d="M 132.5,157.5 C 135.838,157.849 136.838,159.516 135.5,162.5C 133.244,161.579 132.244,159.912 132.5,157.5 Z"/></g>
<g><path style="opacity:1" fill="#21293c" d="M 66.5,161.5 C 69.9318,161.248 70.9318,162.581 69.5,165.5C 67.7118,164.717 66.7118,163.384 66.5,161.5 Z"/></g>
<g><path style="opacity:1" fill="#f7f6f4" d="M 169.5,156.5 C 167.57,160.1 164.903,163.1 161.5,165.5C 159.833,165.5 158.167,165.5 156.5,165.5C 155.662,165.158 155.328,164.492 155.5,163.5C 161.241,163.296 165.908,160.963 169.5,156.5 Z"/></g>
<g><path style="opacity:0.875" fill="#3b8592" d="M 156.5,165.5 C 158.167,165.5 159.833,165.5 161.5,165.5C 160.833,166.833 159.833,167.833 158.5,168.5C 157.599,167.71 156.932,166.71 156.5,165.5 Z"/></g>
<g><path style="opacity:1" fill="#f0efed" d="M 121.5,166.5 C 123.1,168.571 123.6,170.905 123,173.5C 120.015,174.825 117.015,176.158 114,177.5C 109.747,175.023 106.913,171.356 105.5,166.5C 105.33,165.178 105.663,164.011 106.5,163C 109.055,161.556 111.721,160.389 114.5,159.5C 116.029,159.529 117.196,160.196 118,161.5C 119.03,163.346 120.196,165.013 121.5,166.5 Z"/></g>
<g><path style="opacity:1" fill="#283450" d="M 116.5,170.5 C 113.703,170.033 112.369,168.367 112.5,165.5C 112.56,164.957 112.893,164.624 113.5,164.5C 114.519,165.687 115.686,166.687 117,167.5C 117.74,168.749 117.573,169.749 116.5,170.5 Z"/></g>
<g><path style="opacity:1" fill="#ea8559" d="M 141.5,164.5 C 142.167,164.5 142.5,164.167 142.5,163.5C 144.153,161.161 145.487,161.661 146.5,165C 143.056,167.807 139.223,169.973 135,171.5C 133.566,171.07 132.399,170.236 131.5,169C 135.236,168.297 138.569,166.797 141.5,164.5 Z"/></g>
<g><path style="opacity:1" fill="#a2a4ac" d="M 112.5,165.5 C 112.369,168.367 113.703,170.033 116.5,170.5C 115.304,172.981 113.804,172.981 112,170.5C 111.22,168.613 111.387,166.946 112.5,165.5 Z"/></g>
<g><path style="opacity:0.999" fill="#b0b7c1" d="M 152.5,172.5 C 149.743,175.579 146.41,177.912 142.5,179.5C 140.246,178.585 138.246,177.252 136.5,175.5C 139.845,172.157 143.845,169.823 148.5,168.5C 150.715,168.916 152.049,170.25 152.5,172.5 Z"/></g>
<g><path style="opacity:1" fill="#bcbfc2" d="M 100.5,169.5 C 100.833,170.167 101.167,170.833 101.5,171.5C 99.4876,173.208 99.1542,175.208 100.5,177.5C 100.565,177.938 100.399,178.272 100,178.5C 98.1275,176.153 95.9608,174.153 93.5,172.5C 93.0269,171.094 92.0269,170.427 90.5,170.5C 93.6014,167.218 96.9347,166.884 100.5,169.5 Z"/></g>
<g><path style="opacity:1" fill="#5ec3a5" d="M 90.5,170.5 C 92.0269,170.427 93.0269,171.094 93.5,172.5C 93.3505,173.552 93.5172,174.552 94,175.5C 98.6975,179.221 97.8642,180.387 91.5,179C 90.944,178.617 90.6107,178.117 90.5,177.5C 87.9469,175.038 87.9469,172.705 90.5,170.5 Z"/></g>
<g><path style="opacity:1" fill="#58c4b3" d="M 101.5,171.5 C 104.315,173.905 103.982,175.905 100.5,177.5C 99.1542,175.208 99.4876,173.208 101.5,171.5 Z"/></g>
<g><path style="opacity:1" fill="#266788" d="M 50.5,180.5 C 48.5168,179.529 46.5168,178.529 44.5,177.5C 43.8717,174.91 42.705,172.577 41,170.5C 40.3333,168.833 40.3333,167.167 41,165.5C 44.3552,163.492 47.8552,162.326 51.5,162C 56.1194,166.222 58.4527,171.222 58.5,177C 55.9244,178.456 53.2577,179.623 50.5,180.5 Z"/></g>
<g><path style="opacity:1" fill="#f2f0ee" d="M 48.5,165.5 C 52.5134,166.34 55.1801,168.84 56.5,173C 49.0142,178.873 44.6809,177.039 43.5,167.5C 45.5529,167.598 47.2196,166.931 48.5,165.5 Z"/></g>
<g><path style="opacity:1" fill="#54bac2" d="M 47.5,170.5 C 48.7082,169.218 50.0416,169.218 51.5,170.5C 50.1353,173.125 48.802,173.125 47.5,170.5 Z"/></g>
<g><path style="opacity:1" fill="#f18954" d="M 85.5,180.5 C 82.4024,178.818 79.0691,178.318 75.5,179C 73.1618,181.542 72.8285,184.375 74.5,187.5C 70.803,185.179 69.803,182.013 71.5,178C 77.5477,172.52 82.2144,173.353 85.5,180.5 Z"/></g>
<g><path style="opacity:1" fill="#27a6b3" d="M 85.5,181.5 C 88.9186,184.17 89.2519,187.17 86.5,190.5C 85.5084,190.328 84.8417,190.662 84.5,191.5C 83.5,191.5 82.5,191.5 81.5,191.5C 80.791,190.596 79.791,190.263 78.5,190.5C 78.5,190.167 78.5,189.833 78.5,189.5C 80.4672,189.739 82.3005,189.406 84,188.5C 85.3858,186.016 85.8858,183.682 85.5,181.5 Z"/></g>
<g><path style="opacity:1" fill="#e6e9e5" d="M 85.5,180.5 C 85.5,180.833 85.5,181.167 85.5,181.5C 85.8858,183.682 85.3858,186.016 84,188.5C 82.3005,189.406 80.4672,189.739 78.5,189.5C 77.1667,188.833 75.8333,188.167 74.5,187.5C 72.8285,184.375 73.1618,181.542 75.5,179C 79.0691,178.318 82.4024,178.818 85.5,180.5 Z"/></g>
<g><path style="opacity:1" fill="#6bc8cb" d="M 76.5,179.5 C 82.2919,179.779 84.2919,182.612 82.5,188C 76.4512,188.11 74.4512,185.276 76.5,179.5 Z"/></g>
</svg>
